<svg version="1.1" xmlns="http://www.w3.org/2000/svg" xmlns:xlink="http://www.w3.org/1999/xlink" width="499.99997" height="499.99997"><defs><linearGradient x1="249.99998" y1="50" x2="249.99998" y2="449.99997" gradientUnits="userSpaceOnUse" id="color-1"><stop offset="0" stop-color="#715c7e"></stop><stop offset="1" stop-color="#9177a3"></stop></linearGradient><clipPath id="clip-1"><rect x="82.02206" y="37.20441" transform="scale(2.358,2.358)" width="48" height="48"></rect></clipPath></defs><g data-paper-data="{&quot;description&quot;:&quot;Logo for thesis tools\n=====================\n\nThis logo was generated by MarkMaker at http://emblemmatic.org/markmaker/ and may be composed of elements designed by others.\n\nThe font is IM FELL DW Pica Roman designed by Igino Marini and released under the OFL license via Google Fonts: https://www.google.com/fonts/specimen/IM%20Fell%20DW%20Pica. The font includes this copyright statement: © 2007 Igino Marini (www.iginomarini.com mail@iginomarini.com) With Reserved Font Name IM FELL DW Pica Roman\n\nThe symbol is 'presentation' designed by froz and released into the public domain at the Noun Project: https://thenounproject.com/term/presentation/28971.\n\nMarkMaker uses semantic data from the Princeton University WordNet database http://wordnet.princeton.edu and font descriptions from Google Fonts https://www.google.com/fonts.&quot;}" fill="none" fill-rule="nonzero" stroke="none" stroke-width="none" stroke-linecap="butt" stroke-linejoin="miter" stroke-miterlimit="10" stroke-dasharray="" stroke-dashoffset="0" font-family="none" font-weight="none" font-size="none" text-anchor="none" style="mix-blend-mode: normal"><path d="M155.67999,238.63998v-188.63998h188.63998v188.63998z" fill="#816a90" stroke-width="0"></path><g data-paper-data="{&quot;elementType&quot;:&quot;logo&quot;}" fill="url(#color-1)" stroke-width="1"><g data-paper-data="{&quot;elementType&quot;:&quot;text&quot;}"><g data-paper-data="{&quot;baseline&quot;:71.484375,&quot;elementType&quot;:&quot;row&quot;}"><g data-paper-data="{&quot;baselineProportion&quot;:0.9838709677419355,&quot;fontSize&quot;:100,&quot;baseline&quot;:71.484375,&quot;elementType&quot;:&quot;word&quot;}"><path d="M136.28451,339.77237v-3.04328v-2.98894c0,-0.03623 0.01811,-0.16303 0.05434,-0.38041c0.03623,-0.21738 0.07246,-0.46193 0.10869,-0.73365c0.03623,-0.27172 0.07246,-0.56156 0.10869,-0.86951c0.03623,-0.30795 0.05434,-0.5525 0.05434,-0.73365c0.07246,-0.07246 0.16303,-0.3623 0.27172,-0.86951c0.10869,-0.50721 0.16303,-0.85139 0.16303,-1.03254v-5.05402v-1.9564c0,-0.10869 0.04529,-0.37135 0.13586,-0.78799c0.09057,-0.41664 0.17209,-0.66119 0.24455,-0.73365v-9.02116c0,-0.21738 -0.07246,-0.41664 -0.21738,-0.59779c-0.14492,-0.18115 -0.32607,-0.33512 -0.54344,-0.46193c-0.21738,-0.1268 -0.4257,-0.23549 -0.62496,-0.32607c-0.19926,-0.09057 -0.35324,-0.17209 -0.46193,-0.24455c-0.47098,-0.18115 -0.9148,-0.29889 -1.33144,-0.35324c-0.41664,-0.05434 -0.78799,-0.14492 -1.11406,-0.27172c-0.32607,-0.1268 -0.57967,-0.32607 -0.76082,-0.59779c-0.18115,-0.27172 -0.27172,-0.73365 -0.27172,-1.38578v-0.65213c0,-0.14492 0.01811,-0.30795 0.05434,-0.4891c0.03623,-0.03623 0.14492,-0.14492 0.32607,-0.32607c0.18115,-0.18115 0.38947,-0.37135 0.62496,-0.57062c0.23549,-0.19926 0.44381,-0.38947 0.62496,-0.57062c0.18115,-0.18115 0.28984,-0.30795 0.32607,-0.38041c0.10869,-0.07246 0.23549,-0.20832 0.38041,-0.40758c0.14492,-0.19926 0.28984,-0.39852 0.43475,-0.59779c0.14492,-0.19926 0.28078,-0.38947 0.40758,-0.57062c0.1268,-0.18115 0.22643,-0.28984 0.29889,-0.32607c0.86951,-0.94197 1.58504,-1.7843 2.1466,-2.52701c0.56156,-0.74271 1.22275,-1.36767 1.98357,-1.87488c0.47098,-0.39852 1.00537,-0.86045 1.60316,-1.38578c0.59779,-0.52533 1.18652,-0.78799 1.76619,-0.78799c0.94197,0 1.66656,0.20832 2.17377,0.62496c0.50721,0.41664 0.89668,0.94197 1.1684,1.57599c0.27172,0.63402 0.48004,1.33144 0.62496,2.09226c0.14492,0.76082 0.32607,1.48541 0.54344,2.17377h0.4891c0.21738,0 0.4257,0.01811 0.62496,0.05434c0.19926,0.03623 0.38947,0.05434 0.57062,0.05434c0.14492,0 0.29889,-0.01811 0.46193,-0.05434c0.16303,-0.03623 0.31701,-0.07246 0.46193,-0.10869c0.28984,-0.10869 0.56156,-0.17209 0.81516,-0.19021c0.25361,-0.01811 0.52533,-0.02717 0.81516,-0.02717c0.39852,0 0.81516,0.01811 1.24992,0.05434c0.43475,0.03623 0.86951,0.05434 1.30426,0.05434c0.47098,0 1.00537,0.09963 1.60316,0.29889c0.59779,0.19926 1.1684,0.46193 1.71185,0.78799c0.54344,0.32607 0.99631,0.70648 1.35861,1.14123c0.3623,0.43475 0.54344,0.88762 0.54344,1.35861c0,0.28984 -0.13586,0.6159 -0.40758,0.9782c-0.27172,0.3623 -0.60684,0.70648 -1.00537,1.03254c-0.39852,0.32607 -0.80611,0.59779 -1.22275,0.81516c-0.41664,0.21738 -0.78799,0.32607 -1.11406,0.32607h-0.76082c-0.03623,0 -0.14492,-0.00906 -0.32607,-0.02717c-0.18115,-0.01811 -0.38041,-0.02717 -0.59779,-0.02717c-0.21738,0 -0.41664,0 -0.59779,0c-0.18115,0 -0.28984,0 -0.32607,0h-2.66287h-2.49984c-0.9782,0.65213 -1.66656,1.43107 -2.06508,2.33681c-0.32607,0.94197 -0.49816,1.92017 -0.51627,2.93459c-0.01811,1.01443 -0.0634,2.04697 -0.13586,3.09763c-0.18115,0.72459 -0.35324,1.47635 -0.51627,2.25529c-0.16303,0.77894 -0.24455,1.58504 -0.24455,2.41832c0,0.57967 0.0634,1.1684 0.19021,1.76619c0.1268,0.59779 0.19021,1.20463 0.19021,1.82053c0,0.39852 -0.08152,0.81516 -0.24455,1.24992c-0.16303,0.43475 -0.24455,0.88762 -0.24455,1.35861c0,0.28984 0.01811,0.50721 0.05434,0.65213c0,0.14492 0.01811,0.27172 0.05434,0.38041c0,0.10869 0.03623,0.29889 0.10869,0.57062c0.07246,0.27172 0.16303,0.5525 0.27172,0.84234c0.10869,0.28984 0.19926,0.57062 0.27172,0.84234c0.07246,0.27172 0.10869,0.44381 0.10869,0.51627c0,0.07246 0.03623,0.31701 0.10869,0.73365c0.07246,0.41664 0.15398,0.86045 0.24455,1.33144c0.09057,0.47098 0.16303,0.90574 0.21738,1.30426c0.05434,0.39852 0.08152,0.65213 0.08152,0.76082c0.07246,0.25361 0.13586,0.54344 0.19021,0.86951c0.05434,0.32607 0.13586,0.65213 0.24455,0.9782c0.10869,0.32607 0.25361,0.62496 0.43475,0.89668c0.18115,0.27172 0.41664,0.48004 0.70648,0.62496c0.14492,0.03623 0.35324,0.10869 0.62496,0.21738c0.27172,0.10869 0.54344,0.22643 0.81516,0.35324c0.27172,0.1268 0.52533,0.24455 0.76082,0.35324c0.23549,0.10869 0.37135,0.18115 0.40758,0.21738h2.28246h2.28246c0.47098,-0.25361 0.9148,-0.51627 1.33144,-0.78799c0.41664,-0.27172 0.84234,-0.52533 1.27709,-0.76082c0.43475,-0.23549 0.88762,-0.43475 1.35861,-0.59779c0.47098,-0.16303 0.99631,-0.24455 1.57599,-0.24455c0.54344,0 0.87857,0.20832 1.00537,0.62496c0.1268,0.41664 0.19021,0.87857 0.19021,1.38578v0.76082c0,1.48541 -0.47098,2.73533 -1.41295,3.74976c-0.94197,1.01443 -2.09226,1.82959 -3.45086,2.44549c-1.35861,0.6159 -2.78967,1.05066 -4.2932,1.30426c-1.50353,0.25361 -2.83496,0.38041 -3.99431,0.38041c-0.43475,0 -0.9148,-0.00906 -1.44012,-0.02717c-0.52533,-0.01811 -1.06877,-0.07246 -1.63033,-0.16303c-0.56156,-0.09057 -1.11406,-0.21738 -1.6575,-0.38041c-0.54344,-0.16303 -1.01443,-0.38947 -1.41295,-0.6793l-1.41295,-1.41295c-0.83328,-0.9782 -1.66656,-1.97451 -2.49984,-2.98894c-0.83328,-1.01443 -1.50353,-2.13754 -2.01074,-3.36935z" data-paper-data="{&quot;elementType&quot;:&quot;letter&quot;,&quot;baseline&quot;:47.216796875,&quot;baselineProportion&quot;:0.9928131416837782,&quot;fontSize&quot;:100}"></path><path d="M198.99785,348.79353c-0.25361,-0.21738 -0.54344,-0.41664 -0.86951,-0.59779c-0.32607,-0.18115 -0.62496,-0.37135 -0.89668,-0.57062c-0.27172,-0.19926 -0.49816,-0.4257 -0.6793,-0.6793c-0.18115,-0.25361 -0.27172,-0.57967 -0.27172,-0.9782c0,-0.76082 0.17209,-1.35861 0.51627,-1.79336c0.34418,-0.43475 0.77894,-0.75176 1.30426,-0.95103c0.52533,-0.19926 1.09594,-0.32607 1.71185,-0.38041c0.6159,-0.05434 1.19557,-0.11775 1.73902,-0.19021l0.81516,-0.70648v-10.16239c-0.07246,-0.10869 -0.15398,-0.35324 -0.24455,-0.73365c-0.09057,-0.38041 -0.13586,-0.60684 -0.13586,-0.6793c0,-0.10869 0.01811,-0.35324 0.05434,-0.73365c0.03623,-0.38041 0.07246,-0.78799 0.10869,-1.22275c0.03623,-0.43475 0.07246,-0.86951 0.10869,-1.30426c0.03623,-0.43475 0.07246,-0.76082 0.10869,-0.9782c0,-0.07246 0.0634,-0.31701 0.19021,-0.73365c0.1268,-0.41664 0.19021,-0.69742 0.19021,-0.84234v-1.41295c0,-0.10869 0.0634,-0.35324 0.19021,-0.73365c0.1268,-0.38041 0.19021,-0.64307 0.19021,-0.78799l-0.76082,-8.64075c-0.3623,-0.39852 -0.70648,-0.79705 -1.03254,-1.19557c-0.28984,-0.32607 -0.58873,-0.66119 -0.89668,-1.00537c-0.30795,-0.34418 -0.57062,-0.64307 -0.78799,-0.89668c-0.28984,-0.3623 -0.73365,-0.64307 -1.33144,-0.84234c-0.59779,-0.19926 -1.2318,-0.35324 -1.90205,-0.46193c-0.67025,-0.10869 -1.33144,-0.17209 -1.98357,-0.19021c-0.65213,-0.01811 -1.19557,-0.02717 -1.63033,-0.02717c-0.39852,0 -0.89668,0.00906 -1.49447,0.02717c-0.59779,0.01811 -0.95103,0.04529 -1.05971,0.08152c-0.03623,0 -0.14492,0.03623 -0.32607,0.10869c-0.18115,0.07246 -0.37135,0.16303 -0.57062,0.27172c-0.19926,0.10869 -0.39852,0.19926 -0.59779,0.27172c-0.19926,0.07246 -0.33512,0.10869 -0.40758,0.10869c-0.03623,0 -0.18115,0.01811 -0.43475,0.05434c-0.25361,0.03623 -0.52533,0.0634 -0.81516,0.08152c-0.28984,0.01811 -0.56156,0.04529 -0.81516,0.08152c-0.25361,0.03623 -0.39852,0.05434 -0.43475,0.05434c-0.07246,0 -0.15398,0.0634 -0.24455,0.19021c-0.09057,0.1268 -0.17209,0.19021 -0.24455,0.19021c0,0.14492 -0.04529,0.41664 -0.13586,0.81516c-0.09057,0.39852 -0.17209,0.6159 -0.24455,0.65213c0,0.10869 -0.07246,0.19926 -0.21738,0.27172c-0.07246,0.03623 -0.1268,0.07246 -0.16303,0.10869c-0.18115,0.32607 -0.33512,0.72459 -0.46193,1.19557c-0.1268,0.47098 -0.24455,0.96914 -0.35324,1.49447c-0.10869,0.52533 -0.19021,1.0416 -0.24455,1.54881c-0.05434,0.50721 -0.08152,0.94197 -0.08152,1.30426c0,0.43475 0.01811,0.79705 0.05434,1.08689c0.03623,0.28984 0.18115,0.6159 0.43475,0.9782c-0.07246,0.39852 -0.10869,1.0416 -0.10869,1.92922c0,0.88762 0,1.82053 0,2.79873c0,0.9782 0,1.92017 0,2.8259c0,0.90574 0.03623,1.52164 0.10869,1.84771c0,0.18115 0.02717,0.67025 0.08152,1.4673c0.05434,0.79705 0.11775,1.69373 0.19021,2.69004c0.07246,0.99631 0.14492,1.98357 0.21738,2.96177c0.07246,0.9782 0.1268,1.73902 0.16303,2.28246c0.10869,0.86951 0.21738,1.72996 0.32607,2.58135c0.10869,0.85139 0.41664,1.6575 0.92385,2.41832c0.10869,0.03623 0.29889,0.11775 0.57062,0.24455c0.27172,0.1268 0.56156,0.27172 0.86951,0.43475c0.30795,0.16303 0.59779,0.31701 0.86951,0.46193c0.27172,0.14492 0.46193,0.27172 0.57062,0.38041c0.32607,0.14492 0.4891,0.41664 0.4891,0.81516v0.4891c0,0.72459 -0.17209,1.24992 -0.51627,1.57599c-0.34418,0.32607 -0.76988,0.54344 -1.27709,0.65213c-0.50721,0.10869 -1.06877,0.16303 -1.68467,0.16303c-0.6159,0 -1.21369,0.01811 -1.79336,0.05434h-0.81516h-0.70648c-0.14492,-0.07246 -0.41664,-0.17209 -0.81516,-0.29889c-0.39852,-0.1268 -0.65213,-0.19021 -0.76082,-0.19021c-0.28984,0 -0.69742,0.01811 -1.22275,0.05434c-0.52533,0.03623 -1.05066,0.08152 -1.57599,0.13586c-0.52533,0.05434 -0.99631,0.10869 -1.41295,0.16303c-0.41664,0.05434 -0.64307,0.09963 -0.6793,0.13586c-0.50721,0.07246 -1.0416,0.13586 -1.60316,0.19021c-0.56156,0.05434 -1.09594,0.11775 -1.60316,0.19021h-4.2932c-0.25361,-0.14492 -0.50721,-0.28078 -0.76082,-0.40758c-0.25361,-0.1268 -0.50721,-0.28078 -0.76082,-0.46193c-0.32607,-0.50721 -0.4891,-0.9782 -0.4891,-1.41295c0,-0.47098 0.16303,-0.96008 0.4891,-1.4673c0,-0.14492 0.14492,-0.3623 0.43475,-0.65213c0.28984,-0.28984 0.52533,-0.4891 0.70648,-0.59779c0.3623,-0.14492 0.86045,-0.26266 1.49447,-0.35324c0.63402,-0.09057 1.25898,-0.22643 1.87488,-0.40758c0.6159,-0.18115 1.15029,-0.43475 1.60316,-0.76082c0.45287,-0.32607 0.6793,-0.81516 0.6793,-1.4673v-9.40157c-0.07246,-0.14492 -0.15398,-0.40758 -0.24455,-0.78799c-0.09057,-0.38041 -0.13586,-0.62496 -0.13586,-0.73365c0,-0.07246 0.0634,-0.25361 0.19021,-0.54344c0.1268,-0.28984 0.19021,-0.4891 0.19021,-0.59779v-0.54344c0,-0.39852 -0.01811,-0.77894 -0.05434,-1.14123c-0.03623,-0.3623 -0.05434,-0.70648 -0.05434,-1.03254c0,-0.76082 0.14492,-1.48541 0.43475,-2.17377v-7.49952c-0.18115,-0.47098 -0.28078,-0.87857 -0.29889,-1.22275c-0.01811,-0.34418 -0.02717,-0.75176 -0.02717,-1.22275c0,-0.54344 0.0634,-1.00537 0.19021,-1.38578c0.1268,-0.38041 0.26266,-0.72459 0.40758,-1.03254c0.14492,-0.30795 0.28078,-0.6159 0.40758,-0.92385c0.1268,-0.30795 0.19021,-0.66119 0.19021,-1.05971c0,-0.94197 -0.08152,-1.82959 -0.24455,-2.66287c-0.16303,-0.83328 -0.24455,-1.70279 -0.24455,-2.60853c0,-0.83328 0.08152,-1.63939 0.24455,-2.41832c0.16303,-0.77894 0.24455,-1.56693 0.24455,-2.36398v-2.39115c0,0 -0.02717,-0.07246 -0.08152,-0.21738c-0.05434,-0.14492 -0.10869,-0.29889 -0.16303,-0.46193c-0.05434,-0.16303 -0.10869,-0.32607 -0.16303,-0.4891c-0.05434,-0.16303 -0.08152,-0.26266 -0.08152,-0.29889v-5.10837v-1.9564c0,-0.14492 -0.01811,-0.50721 -0.05434,-1.08689c-0.03623,-0.57967 -0.08152,-1.18652 -0.13586,-1.82053c-0.05434,-0.63402 -0.09963,-1.2318 -0.13586,-1.79336c-0.03623,-0.56156 -0.05434,-0.93291 -0.05434,-1.11406v-1.41295c0,-0.07246 -0.04529,-0.19926 -0.13586,-0.38041c-0.09057,-0.18115 -0.15398,-0.30795 -0.19021,-0.38041c-0.28984,-0.47098 -0.59779,-0.92385 -0.92385,-1.35861c-0.32607,-0.43475 -0.77894,-0.74271 -1.35861,-0.92385c-0.10869,0 -0.30795,-0.04529 -0.59779,-0.13586c-0.28984,-0.09057 -0.59779,-0.18115 -0.92385,-0.27172c-0.32607,-0.09057 -0.62496,-0.17209 -0.89668,-0.24455c-0.27172,-0.07246 -0.46193,-0.1268 -0.57062,-0.16303h-1.03254c-0.32607,0 -0.65213,-0.00906 -0.9782,-0.02717c-0.32607,-0.01811 -0.62496,-0.08152 -0.89668,-0.19021c-0.27172,-0.10869 -0.4891,-0.27172 -0.65213,-0.4891c-0.16303,-0.21738 -0.24455,-0.52533 -0.24455,-0.92385v-0.27172c0.03623,-0.10869 0.07246,-0.26266 0.10869,-0.46193c0.03623,-0.19926 0.07246,-0.39852 0.10869,-0.59779c0.03623,-0.19926 0.07246,-0.38041 0.10869,-0.54344c0.03623,-0.16303 0.05434,-0.24455 0.05434,-0.24455l0.32607,-0.38041c1.05066,-0.25361 2.0832,-0.46193 3.09763,-0.62496c1.01443,-0.16303 2.01074,-0.46193 2.98894,-0.89668l0.38041,-0.38041c0.03623,-0.03623 0.09963,-0.0634 0.19021,-0.08152c0.09057,-0.01811 0.17209,-0.04529 0.24455,-0.08152l0.32607,-0.10869c0.07246,-0.03623 0.23549,-0.08152 0.4891,-0.13586c0.25361,-0.05434 0.53439,-0.09963 0.84234,-0.13586c0.30795,-0.03623 0.58873,-0.0634 0.84234,-0.08152c0.25361,-0.01811 0.39852,-0.02717 0.43475,-0.02717c0.10869,-0.07246 0.26266,-0.21738 0.46193,-0.43475c0.19926,-0.21738 0.29889,-0.3623 0.29889,-0.43475c0.57967,-0.47098 1.1684,-0.76082 1.76619,-0.86951c0.59779,-0.10869 1.25898,-0.16303 1.98357,-0.16303c0.50721,0 1.07783,0.04529 1.71185,0.13586c0.63402,0.09057 1.07783,0.38947 1.33144,0.89668c0.03623,0.21738 0.10869,0.57967 0.21738,1.08689c0.10869,0.50721 0.22643,1.05066 0.35324,1.63033c0.1268,0.57967 0.24455,1.11406 0.35324,1.60316c0.10869,0.4891 0.19926,0.80611 0.27172,0.95103c0,0.18115 0.10869,0.47098 0.32607,0.86951c0.21738,0.39852 0.32607,0.65213 0.32607,0.76082v1.03254v1.14123c0,0.07246 -0.04529,0.27172 -0.13586,0.59779c-0.09057,0.32607 -0.13586,0.52533 -0.13586,0.59779c-0.10869,0.79705 -0.19926,1.52164 -0.27172,2.17377c-0.07246,0.65213 -0.1268,1.27709 -0.16303,1.87488c-0.03623,0.59779 -0.05434,1.22275 -0.05434,1.87488c0,0.65213 0,1.37672 0,2.17377c0,0.14492 0.00906,0.39852 0.02717,0.76082c0.01811,0.3623 0.02717,0.76082 0.02717,1.19557c0,0.43475 0.00906,0.85139 0.02717,1.24992c0.01811,0.39852 0.02717,0.67025 0.02717,0.81516c0.18115,0.43475 0.28984,0.86045 0.32607,1.27709c0.03623,0.41664 0.05434,0.87857 0.05434,1.38578v1.08689v2.17377c-0.07246,0.14492 -0.21738,0.40758 -0.43475,0.78799c-0.21738,0.38041 -0.3623,0.66119 -0.43475,0.84234v0.27172v0.38041c0.03623,0.10869 0.10869,0.30795 0.21738,0.59779c0.10869,0.28984 0.22643,0.6159 0.35324,0.9782c0.1268,0.3623 0.24455,0.71553 0.35324,1.05971c0.10869,0.34418 0.18115,0.58873 0.21738,0.73365c0.10869,0.21738 0.18115,0.38947 0.21738,0.51627c0.03623,0.1268 0.09057,0.21738 0.16303,0.27172c0.07246,0.05434 0.17209,0.08152 0.29889,0.08152c0.1268,0 0.31701,0 0.57062,0c0.07246,0 0.19926,0 0.38041,0c0.18115,0 0.27172,-0.03623 0.27172,-0.10869l3.09763,-2.93459c1.63033,-0.14492 3.19726,-0.38041 4.70078,-0.70648c1.50353,-0.32607 3.03422,-0.4891 4.59209,-0.4891c0.76082,0 1.60316,0.01811 2.52701,0.05434c0.92385,0.03623 1.74808,0.14492 2.47267,0.32607c0.07246,0 0.21738,0.05434 0.43475,0.16303c0.21738,0.10869 0.45287,0.23549 0.70648,0.38041c0.25361,0.14492 0.4891,0.27172 0.70648,0.38041c0.21738,0.10869 0.34418,0.16303 0.38041,0.16303c0.03623,0 0.1268,0.01811 0.27172,0.05434c0.14492,0.03623 0.29889,0.08152 0.46193,0.13586c0.16303,0.05434 0.32607,0.09963 0.4891,0.13586c0.16303,0.03623 0.26266,0.05434 0.29889,0.05434c0.25361,0.14492 0.47098,0.26266 0.65213,0.35324c0.18115,0.09057 0.34418,0.26266 0.4891,0.51627c0.47098,0.54344 0.95103,1.09594 1.44012,1.6575c0.4891,0.56156 0.94197,1.15029 1.35861,1.76619c0.41664,0.6159 0.76082,1.26803 1.03254,1.9564c0.27172,0.68836 0.40758,1.43107 0.40758,2.22812c0,0.76082 -0.04529,1.54881 -0.13586,2.36398c-0.09057,0.81516 -0.20832,1.60316 -0.35324,2.36398c0,0.03623 -0.0634,0.16303 -0.19021,0.38041c-0.1268,0.21738 -0.19021,0.3623 -0.19021,0.43475v0.38041v0.27172c0.03623,0.07246 0.07246,0.24455 0.10869,0.51627c0.03623,0.27172 0.07246,0.85139 0.10869,1.73902c0.03623,0.88762 0.07246,2.21 0.10869,3.96713c0.03623,1.75713 0.05434,4.13923 0.05434,7.14628c0,0.07246 -0.0634,0.28984 -0.19021,0.65213c-0.1268,0.3623 -0.19021,0.6159 -0.19021,0.76082v6.08656c-0.07246,0.07246 -0.15398,0.25361 -0.24455,0.54344c-0.09057,0.28984 -0.13586,0.45287 -0.13586,0.4891c0,0.14492 0.03623,0.37135 0.10869,0.6793c0.07246,0.30795 0.14492,0.62496 0.21738,0.95103c0.07246,0.32607 0.15398,0.62496 0.24455,0.89668c0.09057,0.27172 0.15398,0.44381 0.19021,0.51627c0.07246,0.10869 0.19926,0.26266 0.38041,0.46193c0.18115,0.19926 0.37135,0.40758 0.57062,0.62496c0.19926,0.21738 0.38947,0.39852 0.57062,0.54344c0.18115,0.14492 0.30795,0.21738 0.38041,0.21738l4.23886,0.86951c0,0 0.0634,0.05434 0.19021,0.16303c0.1268,0.10869 0.27172,0.24455 0.43475,0.40758c0.16303,0.16303 0.31701,0.31701 0.46193,0.46193c0.14492,0.14492 0.27172,0.27172 0.38041,0.38041c0.07246,0.14492 0.15398,0.34418 0.24455,0.59779c0.09057,0.25361 0.13586,0.45287 0.13586,0.59779c0,0.28984 -0.08152,0.52533 -0.24455,0.70648c-0.16303,0.18115 -0.37135,0.32607 -0.62496,0.43475c-0.25361,0.10869 -0.50721,0.19021 -0.76082,0.24455c-0.25361,0.05434 -0.45287,0.09963 -0.59779,0.13586c-0.43475,0 -1.17746,0.01811 -2.22812,0.05434c-1.05066,0.03623 -2.15566,0.08152 -3.315,0.13586c-1.15935,0.05434 -2.25529,0.09963 -3.28783,0.13586c-1.03254,0.03623 -1.72996,0.05434 -2.09226,0.05434h-0.4891h-0.38041c0,0 -0.07246,-0.01811 -0.21738,-0.05434c-0.14492,-0.03623 -0.29889,-0.08152 -0.46193,-0.13586c-0.16303,-0.05434 -0.32607,-0.09963 -0.4891,-0.13586c-0.16303,-0.03623 -0.26266,-0.05434 -0.29889,-0.05434c-0.25361,0 -0.65213,-0.01811 -1.19557,-0.05434c-0.54344,-0.03623 -1.15935,-0.05434 -1.84771,-0.05434c-0.65213,0 -1.24992,0.01811 -1.79336,0.05434c-0.54344,0.03623 -0.94197,0.05434 -1.19557,0.05434z" data-paper-data="{&quot;elementType&quot;:&quot;letter&quot;,&quot;baseline&quot;:71.484375,&quot;baselineProportion&quot;:0.9905277401894452,&quot;fontSize&quot;:100}"></path><path d="M225.35484,322.92563c0,-2.13754 0.24455,-4.30226 0.73365,-6.49415c0.4891,-2.19189 1.36767,-4.19357 2.6357,-6.00505c0.25361,-0.3623 0.6159,-0.84234 1.08689,-1.44012c0.47098,-0.59779 0.93291,-1.19557 1.38578,-1.79336c0.45287,-0.59779 0.84234,-1.13217 1.1684,-1.60316c0.32607,-0.47098 0.50721,-0.74271 0.54344,-0.81516c0.47098,-0.57967 1.08689,-1.12312 1.84771,-1.63033c0.76082,-0.50721 1.55787,-0.99631 2.39115,-1.4673c0.83328,-0.47098 1.66656,-0.93291 2.49984,-1.38578c0.83328,-0.45287 1.55787,-0.89668 2.17377,-1.33144c0.72459,-0.14492 1.44918,-0.26266 2.17377,-0.35324c0.72459,-0.09057 1.44918,-0.13586 2.17377,-0.13586c1.19557,0 2.28246,0.1268 3.26066,0.38041c0.76082,0.50721 1.57599,0.82422 2.44549,0.95103c0.86951,0.1268 1.7209,0.31701 2.55418,0.57062c0.68836,0.18115 1.36767,0.46193 2.03791,0.84234c0.67025,0.38041 1.28615,0.83328 1.84771,1.35861c0.56156,0.52533 1.08689,1.08689 1.57599,1.68467c0.4891,0.59779 0.9148,1.18652 1.27709,1.76619c0.03623,0.03623 0.09057,0.1268 0.16303,0.27172c0.07246,0.14492 0.15398,0.29889 0.24455,0.46193c0.09057,0.16303 0.17209,0.31701 0.24455,0.46193c0.07246,0.14492 0.10869,0.23549 0.10869,0.27172c0.18115,0.25361 0.4257,0.53439 0.73365,0.84234c0.30795,0.30795 0.60684,0.63402 0.89668,0.9782c0.28984,0.34418 0.53439,0.70648 0.73365,1.08689c0.19926,0.38041 0.29889,0.76988 0.29889,1.1684c0,0.28984 -0.01811,0.64307 -0.05434,1.05971c-0.03623,0.41664 -0.10869,0.83328 -0.21738,1.24992c-0.10869,0.41664 -0.26266,0.80611 -0.46193,1.1684c-0.19926,0.3623 -0.46193,0.6159 -0.78799,0.76082c-0.07246,0 -0.20832,0.03623 -0.40758,0.10869c-0.19926,0.07246 -0.4257,0.15398 -0.6793,0.24455c-0.25361,0.09057 -0.49816,0.17209 -0.73365,0.24455c-0.23549,0.07246 -0.38947,0.1268 -0.46193,0.16303c-0.03623,0 -0.15398,0.04529 -0.35324,0.13586c-0.19926,0.09057 -0.31701,0.15398 -0.35324,0.19021c-0.47098,0 -1.18652,0.00906 -2.1466,0.02717c-0.96008,0.01811 -2.04697,0.03623 -3.26066,0.05434c-1.21369,0.01811 -2.49078,0.04529 -3.83127,0.08152c-1.34049,0.03623 -2.61758,0.07246 -3.83127,0.10869c-1.21369,0.03623 -2.30963,0.0634 -3.28783,0.08152c-0.9782,0.01811 -1.70279,0.02717 -2.17377,0.02717c-0.14492,0 -0.41664,0.00906 -0.81516,0.02717c-0.39852,0.01811 -0.81516,0.04529 -1.24992,0.08152c-0.43475,0.03623 -0.84234,0.08152 -1.22275,0.13586c-0.38041,0.05434 -0.64307,0.09963 -0.78799,0.13586c-0.94197,0.76082 -1.56693,1.67562 -1.87488,2.74439c-0.30795,1.06877 -0.46193,2.20094 -0.46193,3.39652c0,1.30426 0.1268,2.43644 0.38041,3.39652c0.25361,0.96008 0.63402,2.05603 1.14123,3.28783c0.07246,0.07246 0.15398,0.20832 0.24455,0.40758c0.09057,0.19926 0.13586,0.33512 0.13586,0.40758c0.03623,0.03623 0.13586,0.11775 0.29889,0.24455c0.16303,0.1268 0.32607,0.27172 0.4891,0.43475c0.16303,0.16303 0.31701,0.32607 0.46193,0.4891c0.14492,0.16303 0.21738,0.28078 0.21738,0.35324c0.03623,0.03623 0.15398,0.15398 0.35324,0.35324c0.19926,0.19926 0.40758,0.4257 0.62496,0.6793c0.21738,0.25361 0.41664,0.49816 0.59779,0.73365c0.18115,0.23549 0.28984,0.38947 0.32607,0.46193c0.07246,0 0.15398,0.05434 0.24455,0.16303c0.09057,0.10869 0.17209,0.16303 0.24455,0.16303c0.32607,0.28984 0.73365,0.63402 1.22275,1.03254c0.4891,0.39852 0.96914,0.77894 1.44012,1.14123c0.54344,0.43475 1.12312,0.86951 1.73902,1.30426c1.55787,0.43475 3.0614,0.65213 4.51058,0.65213c1.44918,0 2.98894,-0.21738 4.61927,-0.65213c0.94197,-0.57967 1.91111,-1.02348 2.90742,-1.33144c0.99631,-0.30795 2.00168,-0.62496 3.01611,-0.95103c0.07246,-0.07246 0.21738,-0.15398 0.43475,-0.24455c0.21738,-0.09057 0.34418,-0.17209 0.38041,-0.24455h0.32607h0.05434c0.25361,0.10869 0.57062,0.25361 0.95103,0.43475c0.38041,0.18115 0.57062,0.32607 0.57062,0.43475c0.07246,0.07246 0.15398,0.34418 0.24455,0.81516c0.09057,0.47098 0.13586,0.83328 0.13586,1.08689c0,0.6159 -0.17209,1.34049 -0.51627,2.17377c-0.34418,0.83328 -0.6793,1.44918 -1.00537,1.84771c0,0.07246 -0.20832,0.25361 -0.62496,0.54344c-0.41664,0.28984 -0.73365,0.50721 -0.95103,0.65213c-1.15935,0.76082 -2.30058,1.56693 -3.42369,2.41832c-1.12312,0.85139 -2.33681,1.5307 -3.64107,2.03791c-0.07246,0.03623 -0.24455,0.08152 -0.51627,0.13586c-0.27172,0.05434 -0.5525,0.09963 -0.84234,0.13586c-0.28984,0.03623 -0.56156,0.07246 -0.81516,0.10869c-0.25361,0.03623 -0.39852,0.05434 -0.43475,0.05434c-0.68836,0.18115 -1.27709,0.35324 -1.76619,0.51627c-0.4891,0.16303 -1.05971,0.24455 -1.71185,0.24455c-0.6159,0 -1.17746,-0.08152 -1.68467,-0.24455c-0.50721,-0.16303 -1.08689,-0.33512 -1.73902,-0.51627c-0.32607,-0.07246 -0.78799,-0.19021 -1.38578,-0.35324c-0.59779,-0.16303 -1.22275,-0.35324 -1.87488,-0.57062c-0.65213,-0.21738 -1.25898,-0.45287 -1.82053,-0.70648c-0.56156,-0.25361 -0.96914,-0.4891 -1.22275,-0.70648c-0.10869,-0.03623 -0.30795,-0.19926 -0.59779,-0.4891c-0.28984,-0.28984 -0.60684,-0.59779 -0.95103,-0.92385c-0.34418,-0.32607 -0.66119,-0.63402 -0.95103,-0.92385c-0.28984,-0.28984 -0.4891,-0.47098 -0.59779,-0.54344c-0.03623,-0.07246 -0.21738,-0.21738 -0.54344,-0.43475c-0.32607,-0.21738 -0.50721,-0.3623 -0.54344,-0.43475c-0.18115,-0.07246 -0.39852,-0.24455 -0.65213,-0.51627c-0.25361,-0.27172 -0.41664,-0.44381 -0.4891,-0.51627c-0.10869,-0.14492 -0.33512,-0.48004 -0.6793,-1.00537c-0.34418,-0.52533 -0.71553,-1.09594 -1.11406,-1.71185c-0.39852,-0.6159 -0.78799,-1.21369 -1.1684,-1.79336c-0.38041,-0.57967 -0.64307,-0.99631 -0.78799,-1.24992c-0.50721,-0.72459 -0.84234,-1.44918 -1.00537,-2.17377c-0.16303,-0.72459 -0.33512,-1.50353 -0.51627,-2.33681c0,-0.03623 -0.0634,-0.20832 -0.19021,-0.51627c-0.1268,-0.30795 -0.19021,-0.49816 -0.19021,-0.57062c-0.47098,-1.08689 -0.77894,-2.30963 -0.92385,-3.66824c-0.14492,-1.35861 -0.21738,-2.65381 -0.21738,-3.88562zM237.79969,309.50259c0,0.86951 0.19926,1.49447 0.59779,1.87488c0.39852,0.38041 0.89668,0.62496 1.49447,0.73365c0.59779,0.10869 1.24992,0.15398 1.9564,0.13586c0.70648,-0.01811 1.34955,0.00906 1.92922,0.08152c0.07246,0 0.21738,0.0634 0.43475,0.19021c0.21738,0.1268 0.3623,0.19021 0.43475,0.19021c0.72459,0.21738 1.26803,0.34418 1.63033,0.38041c0.3623,0.03623 0.90574,0.05434 1.63033,0.05434c0.68836,0 1.39484,-0.02717 2.11943,-0.08152c0.72459,-0.05434 1.38578,-0.19021 1.98357,-0.40758c0.59779,-0.21738 1.08689,-0.56156 1.4673,-1.03254c0.38041,-0.47098 0.57062,-1.12312 0.57062,-1.9564c0,-1.05066 -0.17209,-2.1466 -0.51627,-3.28783c-0.34418,-1.14123 -0.93291,-2.03791 -1.76619,-2.69004c-0.18115,0 -0.46193,-0.01811 -0.84234,-0.05434c-0.38041,-0.03623 -0.78799,-0.07246 -1.22275,-0.10869c-0.43475,-0.03623 -0.86045,-0.08152 -1.27709,-0.13586c-0.41664,-0.05434 -0.71553,-0.08152 -0.89668,-0.08152c-0.07246,-0.03623 -0.16303,-0.09057 -0.27172,-0.16303c-0.21738,-0.14492 -0.34418,-0.21738 -0.38041,-0.21738h-0.92385c-0.76082,0 -1.62127,0.19021 -2.58135,0.57062c-0.96008,0.38041 -1.84771,0.87857 -2.66287,1.49447c-0.81516,0.6159 -1.50353,1.31332 -2.06508,2.09226c-0.56156,0.77894 -0.84234,1.58504 -0.84234,2.41832" data-paper-data="{&quot;elementType&quot;:&quot;letter&quot;,&quot;baseline&quot;:44.873046875,&quot;baselineProportion&quot;:0.9745493107104984,&quot;fontSize&quot;:100}"></path><path d="M271.11275,340.69622v-1.30426c0,-0.07246 0.10869,-0.30795 0.32607,-0.70648c0.21738,-0.39852 0.32607,-0.63402 0.32607,-0.70648c0.18115,-0.43475 0.34418,-0.9148 0.4891,-1.44012c0.14492,-0.52533 0.31701,-1.02348 0.51627,-1.49447c0.19926,-0.47098 0.46193,-0.86951 0.78799,-1.19557c0.32607,-0.32607 0.79705,-0.4891 1.41295,-0.4891h0.54344c0.10869,0 0.25361,0.16303 0.43475,0.4891c0.18115,0.32607 0.32607,0.57967 0.43475,0.76082c0.47098,0.86951 0.98726,1.85676 1.54881,2.96177c0.56156,1.105 1.20463,2.12849 1.92922,3.07045c0.72459,0.94197 1.57599,1.73902 2.55418,2.39115c0.9782,0.65213 2.10131,0.9782 3.36935,0.9782c0.47098,0 1.06877,-0.17209 1.79336,-0.51627c0.72459,-0.34418 1.44012,-0.75176 2.1466,-1.22275c0.70648,-0.47098 1.34049,-0.96914 1.90205,-1.49447c0.56156,-0.52533 0.89668,-0.98726 1.00537,-1.38578c0.14492,-0.47098 0.27172,-0.90574 0.38041,-1.30426c0.10869,-0.39852 0.16303,-0.81516 0.16303,-1.24992c0,-0.72459 -0.18115,-1.4673 -0.54344,-2.22812c0,-0.43475 -0.37135,-1.03254 -1.11406,-1.79336c-0.74271,-0.76082 -1.60316,-1.51258 -2.58135,-2.25529c-0.9782,-0.74271 -1.92017,-1.42201 -2.8259,-2.03791c-0.90574,-0.6159 -1.52164,-1.01443 -1.84771,-1.19557c-0.39852,-0.14492 -0.80611,-0.22643 -1.22275,-0.24455c-0.41664,-0.01811 -0.76988,-0.15398 -1.05971,-0.40758c0,-0.07246 -0.08152,-0.18115 -0.24455,-0.32607c-0.16303,-0.14492 -0.32607,-0.29889 -0.4891,-0.46193c-0.16303,-0.16303 -0.32607,-0.31701 -0.4891,-0.46193c-0.16303,-0.14492 -0.24455,-0.21738 -0.24455,-0.21738c-0.07246,-0.14492 -0.30795,-0.35324 -0.70648,-0.62496c-0.39852,-0.27172 -0.67025,-0.48004 -0.81516,-0.62496l-0.76082,-0.38041l-2.98894,-2.98894c-0.25361,-0.6159 -0.46193,-1.2318 -0.62496,-1.84771c-0.16303,-0.6159 -0.33512,-1.24992 -0.51627,-1.90205c-0.03623,-0.18115 -0.09963,-0.43475 -0.19021,-0.76082c-0.09057,-0.32607 -0.17209,-0.64307 -0.24455,-0.95103c-0.07246,-0.30795 -0.14492,-0.57967 -0.21738,-0.81516c-0.07246,-0.23549 -0.10869,-0.37135 -0.10869,-0.40758c-0.07246,-0.9782 0,-2.00168 0.21738,-3.07045c0.21738,-1.06877 0.5525,-2.09226 1.00537,-3.07045c0.45287,-0.9782 0.98726,-1.89299 1.60316,-2.74439c0.6159,-0.85139 1.30426,-1.54881 2.06508,-2.09226c0.07246,-0.07246 0.27172,-0.15398 0.59779,-0.24455c0.32607,-0.09057 0.54344,-0.17209 0.65213,-0.24455c0.54344,-0.21738 1.13217,-0.5525 1.76619,-1.00537c0.63402,-0.45287 1.29521,-0.90574 1.98357,-1.35861c0.68836,-0.45287 1.37672,-0.84234 2.06508,-1.1684c0.68836,-0.32607 1.34049,-0.4891 1.9564,-0.4891c0.6159,0 1.32238,0.13586 2.11943,0.40758c0.79705,0.27172 1.4673,0.49816 2.01074,0.6793c0.9782,0.32607 1.92017,0.63402 2.8259,0.92385c0.90574,0.28984 1.71185,0.67025 2.41832,1.14123c0.70648,0.47098 1.26803,1.06877 1.68467,1.79336c0.41664,0.72459 0.62496,1.66656 0.62496,2.8259c0,0.39852 -0.04529,0.96914 -0.13586,1.71185c-0.09057,0.74271 -0.24455,1.4673 -0.46193,2.17377c-0.21738,0.70648 -0.52533,1.32238 -0.92385,1.84771c-0.39852,0.52533 -0.90574,0.78799 -1.52164,0.78799h-0.32607c-0.07246,-0.07246 -0.19926,-0.32607 -0.38041,-0.76082c-0.18115,-0.43475 -0.30795,-0.68836 -0.38041,-0.76082c-0.50721,-0.90574 -1.05971,-1.77525 -1.6575,-2.60853c-0.59779,-0.83328 -1.26803,-1.56693 -2.01074,-2.20094c-0.74271,-0.63402 -1.54881,-1.13217 -2.41832,-1.49447c-0.86951,-0.3623 -1.84771,-0.54344 -2.93459,-0.54344c-0.32607,0 -0.70648,0.01811 -1.14123,0.05434c-0.43475,0.03623 -0.81516,0.16303 -1.14123,0.38041c-1.2318,0.94197 -2.16472,1.93828 -2.79873,2.98894c-0.63402,1.05066 -0.95103,2.37304 -0.95103,3.96713c0,0.86951 0.19926,1.6575 0.59779,2.36398c0.39852,0.70648 0.90574,1.33144 1.52164,1.87488c0.6159,0.54344 1.30426,1.01443 2.06508,1.41295c0.76082,0.39852 1.50353,0.70648 2.22812,0.92385c0.03623,0.03623 0.16303,0.07246 0.38041,0.10869c0.21738,0.03623 0.46193,0.07246 0.73365,0.10869c0.27172,0.03623 0.51627,0.07246 0.73365,0.10869c0.21738,0.03623 0.34418,0.05434 0.38041,0.05434c0.07246,0 0.19926,0.0634 0.38041,0.19021c0.18115,0.1268 0.30795,0.19021 0.38041,0.19021c0.79705,0.57967 1.62127,1.15029 2.47267,1.71185c0.85139,0.56156 1.68467,1.14123 2.49984,1.73902c0.81516,0.59779 1.60316,1.24086 2.36398,1.92922c0.76082,0.68836 1.44918,1.43107 2.06508,2.22812c0.03623,0.03623 0.10869,0.16303 0.21738,0.38041c0.10869,0.21738 0.22643,0.46193 0.35324,0.73365c0.1268,0.27172 0.24455,0.54344 0.35324,0.81516c0.10869,0.27172 0.19926,0.48004 0.27172,0.62496c0,0.07246 0.00906,0.21738 0.02717,0.43475c0.01811,0.21738 0.04529,0.45287 0.08152,0.70648c0.03623,0.25361 0.08152,0.49816 0.13586,0.73365c0.05434,0.23549 0.09963,0.37135 0.13586,0.40758c0.14492,0.43475 0.32607,0.82422 0.54344,1.1684c0.21738,0.34418 0.4257,0.6793 0.62496,1.00537c0.19926,0.32607 0.37135,0.65213 0.51627,0.9782c0.14492,0.32607 0.21738,0.70648 0.21738,1.14123c0,1.15935 -0.25361,2.22812 -0.76082,3.20631c-0.50721,0.9782 -1.01443,2.01074 -1.52164,3.09763c-0.47098,0.76082 -1.08689,1.50353 -1.84771,2.22812c-0.76082,0.72459 -1.39484,1.32238 -1.90205,1.79336c-1.44918,1.26803 -3.11574,2.16472 -4.99968,2.69004c-1.88394,0.52533 -3.69541,0.78799 -5.43443,0.78799c-1.30426,0 -2.62664,-0.07246 -3.96713,-0.21738c-1.34049,-0.14492 -2.59041,-0.47098 -3.74976,-0.9782c-0.03623,-0.03623 -0.16303,-0.11775 -0.38041,-0.24455c-0.21738,-0.1268 -0.46193,-0.27172 -0.73365,-0.43475c-0.27172,-0.16303 -0.52533,-0.31701 -0.76082,-0.46193c-0.23549,-0.14492 -0.38947,-0.23549 -0.46193,-0.27172c-0.72459,-0.43475 -1.36767,-0.82422 -1.92922,-1.1684c-0.56156,-0.34418 -1.02348,-0.73365 -1.38578,-1.1684c-0.3623,-0.43475 -0.63402,-0.96008 -0.81516,-1.57599c-0.18115,-0.6159 -0.27172,-1.41295 -0.27172,-2.39115z" data-paper-data="{&quot;elementType&quot;:&quot;letter&quot;,&quot;baseline&quot;:44.921875,&quot;baselineProportion&quot;:0.9766454352441614,&quot;fontSize&quot;:100}"></path><path d="M308.99074,345.09811c0,-0.65213 0.19926,-1.20463 0.59779,-1.6575c0.39852,-0.45287 0.86951,-0.87857 1.41295,-1.27709c0.54344,-0.39852 1.08689,-0.80611 1.63033,-1.22275c0.54344,-0.41664 0.96008,-0.93291 1.24992,-1.54881c0.18115,-0.43475 0.30795,-0.88762 0.38041,-1.35861c0.07246,-0.47098 0.10869,-0.96008 0.10869,-1.4673c0,-0.47098 -0.01811,-0.92385 -0.05434,-1.35861c-0.03623,-0.43475 -0.05434,-0.85139 -0.05434,-1.24992v-0.59779c0,-0.07246 0.0634,-0.32607 0.19021,-0.76082c0.1268,-0.43475 0.19021,-0.67025 0.19021,-0.70648v-4.18451c0,-0.03623 0.01811,-0.16303 0.05434,-0.38041c0.03623,-0.21738 0.08152,-0.44381 0.13586,-0.6793c0.05434,-0.23549 0.09963,-0.46193 0.13586,-0.6793c0.03623,-0.21738 0.05434,-0.34418 0.05434,-0.38041c0,-0.10869 -0.0634,-0.38041 -0.19021,-0.81516c-0.1268,-0.43475 -0.19021,-0.70648 -0.19021,-0.81516v-0.16303v-0.10869c0,-0.07246 0.03623,-0.21738 0.10869,-0.43475c0.07246,-0.21738 0.14492,-0.45287 0.21738,-0.70648c0.07246,-0.25361 0.14492,-0.4891 0.21738,-0.70648c0.07246,-0.21738 0.10869,-0.3623 0.10869,-0.43475c0,-0.03623 0.03623,-0.31701 0.10869,-0.84234c0.07246,-0.52533 0.10869,-0.95103 0.10869,-1.27709c0,-1.01443 -0.05434,-1.9564 -0.16303,-2.8259c-0.10869,-0.86951 -0.47098,-1.7209 -1.08689,-2.55418c-0.10869,-0.10869 -0.31701,-0.35324 -0.62496,-0.73365c-0.30795,-0.38041 -0.62496,-0.77894 -0.95103,-1.19557c-0.32607,-0.41664 -0.63402,-0.79705 -0.92385,-1.14123c-0.28984,-0.34418 -0.45287,-0.57062 -0.4891,-0.6793c0,-0.07246 -0.10869,-0.34418 -0.32607,-0.81516c-0.21738,-0.47098 -0.3623,-0.83328 -0.43475,-1.08689v-0.27172c0,-0.28984 0.10869,-0.57967 0.32607,-0.86951c0.21738,-0.28984 0.45287,-0.52533 0.70648,-0.70648c0.72459,-0.50721 1.48541,-0.99631 2.28246,-1.4673c0.79705,-0.47098 1.57599,-0.88762 2.33681,-1.24992c0.07246,0 0.31701,-0.04529 0.73365,-0.13586c0.41664,-0.09057 0.6793,-0.17209 0.78799,-0.24455c0.07246,-0.03623 0.28984,-0.14492 0.65213,-0.32607c0.3623,-0.18115 0.74271,-0.38041 1.14123,-0.59779c0.39852,-0.21738 0.77894,-0.4257 1.14123,-0.62496c0.3623,-0.19926 0.59779,-0.31701 0.70648,-0.35324c0.14492,0 0.43475,-0.01811 0.86951,-0.05434c0.43475,-0.03623 0.74271,-0.05434 0.92385,-0.05434c0.18115,0 0.4257,0.01811 0.73365,0.05434c0.30795,0.03623 0.49816,0.05434 0.57062,0.05434l0.65213,1.19557c0.03623,0 0.07246,0.16303 0.10869,0.4891c0.03623,0.32607 0.08152,0.70648 0.13586,1.14123c0.05434,0.43475 0.09963,0.88762 0.13586,1.35861c0.03623,0.47098 0.07246,0.86951 0.10869,1.19557v0.54344c0,0.32607 -0.01811,0.58873 -0.05434,0.78799c-0.03623,0.19926 -0.18115,0.46193 -0.43475,0.78799c0,0.25361 0.01811,0.67025 0.05434,1.24992c0.03623,0.57967 0.05434,1.2318 0.05434,1.9564c0,0.72459 -0.01811,1.39484 -0.05434,2.01074c-0.03623,0.6159 -0.05434,1.05066 -0.05434,1.30426c0,0.07246 -0.03623,0.25361 -0.10869,0.54344c-0.07246,0.28984 -0.14492,0.59779 -0.21738,0.92385c-0.07246,0.32607 -0.14492,0.63402 -0.21738,0.92385c-0.07246,0.28984 -0.10869,0.45287 -0.10869,0.4891v0.9782c0,0.39852 0.0634,0.73365 0.19021,1.00537c0.1268,0.27172 0.25361,0.52533 0.38041,0.76082c0.1268,0.23549 0.25361,0.46193 0.38041,0.6793c0.1268,0.21738 0.19021,0.47098 0.19021,0.76082c0,0.6159 -0.03623,1.26803 -0.10869,1.9564c-0.07246,0.68836 -0.32607,1.28615 -0.76082,1.79336c0.07246,0.39852 0.10869,0.78799 0.10869,1.1684c0,0.38041 0,0.76988 0,1.1684c0,0.9782 -0.03623,1.96545 -0.10869,2.96177c-0.07246,0.99631 -0.16303,2.0198 -0.27172,3.07045c0,0.03623 -0.0634,0.26266 -0.19021,0.6793c-0.1268,0.41664 -0.19021,0.66119 -0.19021,0.73365v0.92385v0.54344c0,0.28984 0.01811,0.57062 0.05434,0.84234c0.03623,0.27172 0.14492,0.49816 0.32607,0.6793l4.89099,4.89099c0,0.07246 0.04529,0.25361 0.13586,0.54344c0.09057,0.28984 0.17209,0.4891 0.24455,0.59779v0.38041c0,0.3623 -0.08152,0.74271 -0.24455,1.14123c-0.16303,0.39852 -0.38947,0.76082 -0.6793,1.08689c-0.28984,0.32607 -0.6159,0.59779 -0.9782,0.81516c-0.3623,0.21738 -0.76082,0.32607 -1.19557,0.32607h-2.93459h-2.98894c-0.3623,0 -0.93291,-0.01811 -1.71185,-0.05434c-0.77894,-0.03623 -1.58504,-0.08152 -2.41832,-0.13586c-0.83328,-0.05434 -1.61221,-0.09963 -2.33681,-0.13586c-0.72459,-0.03623 -1.19557,-0.05434 -1.41295,-0.05434c-1.08689,-0.07246 -1.99262,-0.35324 -2.71722,-0.84234c-0.72459,-0.4891 -1.08689,-1.31332 -1.08689,-2.47267zM313.44697,282.60215c0,-1.41295 0.38947,-2.78062 1.1684,-4.103c0.77894,-1.32238 1.80242,-2.30963 3.07045,-2.96177c0.14492,0 0.43475,-0.01811 0.86951,-0.05434c0.43475,-0.03623 0.88762,-0.07246 1.35861,-0.10869c0.47098,-0.03623 0.92385,-0.0634 1.35861,-0.08152c0.43475,-0.01811 0.74271,-0.02717 0.92385,-0.02717c0,-0.10869 0.05434,-0.16303 0.16303,-0.16303c0.57967,0 1.07783,0.11775 1.49447,0.35324c0.41664,0.23549 0.78799,0.53439 1.11406,0.89668c0.32607,0.3623 0.62496,0.76988 0.89668,1.22275c0.27172,0.45287 0.51627,0.87857 0.73365,1.27709c0.10869,0.18115 0.22643,0.38947 0.35324,0.62496c0.1268,0.23549 0.25361,0.48004 0.38041,0.73365c0.1268,0.25361 0.23549,0.47098 0.32607,0.65213c0.09057,0.18115 0.13586,0.28984 0.13586,0.32607c0,0.10869 0.01811,0.44381 0.05434,1.00537c0.03623,0.56156 0.05434,0.98726 0.05434,1.27709c0,1.08689 -0.16303,2.12849 -0.4891,3.1248c-0.32607,0.99631 -0.80611,1.88394 -1.44012,2.66287c-0.63402,0.77894 -1.39484,1.40389 -2.28246,1.87488c-0.88762,0.47098 -1.89299,0.70648 -3.01611,0.70648c-0.10869,0 -0.29889,-0.01811 -0.57062,-0.05434c-0.27172,-0.03623 -0.49816,-0.05434 -0.6793,-0.05434c-0.68836,-0.68836 -1.38578,-1.35861 -2.09226,-2.01074c-0.70648,-0.65213 -1.34955,-1.33144 -1.92922,-2.03791c-0.57967,-0.70648 -1.05066,-1.4673 -1.41295,-2.28246c-0.3623,-0.81516 -0.54344,-1.74808 -0.54344,-2.79873" data-paper-data="{&quot;elementType&quot;:&quot;letter&quot;,&quot;baseline&quot;:65.869140625,&quot;baselineProportion&quot;:0.9948377581120944,&quot;fontSize&quot;:100}"></path><path d="M336.97806,340.69622v-1.30426c0,-0.07246 0.10869,-0.30795 0.32607,-0.70648c0.21738,-0.39852 0.32607,-0.63402 0.32607,-0.70648c0.18115,-0.43475 0.34418,-0.9148 0.4891,-1.44012c0.14492,-0.52533 0.31701,-1.02348 0.51627,-1.49447c0.19926,-0.47098 0.46193,-0.86951 0.78799,-1.19557c0.32607,-0.32607 0.79705,-0.4891 1.41295,-0.4891h0.54344c0.10869,0 0.25361,0.16303 0.43475,0.4891c0.18115,0.32607 0.32607,0.57967 0.43475,0.76082c0.47098,0.86951 0.98726,1.85676 1.54881,2.96177c0.56156,1.105 1.20463,2.12849 1.92922,3.07045c0.72459,0.94197 1.57599,1.73902 2.55418,2.39115c0.9782,0.65213 2.10131,0.9782 3.36935,0.9782c0.47098,0 1.06877,-0.17209 1.79336,-0.51627c0.72459,-0.34418 1.44012,-0.75176 2.1466,-1.22275c0.70648,-0.47098 1.34049,-0.96914 1.90205,-1.49447c0.56156,-0.52533 0.89668,-0.98726 1.00537,-1.38578c0.14492,-0.47098 0.27172,-0.90574 0.38041,-1.30426c0.10869,-0.39852 0.16303,-0.81516 0.16303,-1.24992c0,-0.72459 -0.18115,-1.4673 -0.54344,-2.22812c0,-0.43475 -0.37135,-1.03254 -1.11406,-1.79336c-0.74271,-0.76082 -1.60316,-1.51258 -2.58135,-2.25529c-0.9782,-0.74271 -1.92017,-1.42201 -2.8259,-2.03791c-0.90574,-0.6159 -1.52164,-1.01443 -1.84771,-1.19557c-0.39852,-0.14492 -0.80611,-0.22643 -1.22275,-0.24455c-0.41664,-0.01811 -0.76988,-0.15398 -1.05971,-0.40758c0,-0.07246 -0.08152,-0.18115 -0.24455,-0.32607c-0.16303,-0.14492 -0.32607,-0.29889 -0.4891,-0.46193c-0.16303,-0.16303 -0.32607,-0.31701 -0.4891,-0.46193c-0.16303,-0.14492 -0.24455,-0.21738 -0.24455,-0.21738c-0.07246,-0.14492 -0.30795,-0.35324 -0.70648,-0.62496c-0.39852,-0.27172 -0.67025,-0.48004 -0.81516,-0.62496l-0.76082,-0.38041l-2.98894,-2.98894c-0.25361,-0.6159 -0.46193,-1.2318 -0.62496,-1.84771c-0.16303,-0.6159 -0.33512,-1.24992 -0.51627,-1.90205c-0.03623,-0.18115 -0.09963,-0.43475 -0.19021,-0.76082c-0.09057,-0.32607 -0.17209,-0.64307 -0.24455,-0.95103c-0.07246,-0.30795 -0.14492,-0.57967 -0.21738,-0.81516c-0.07246,-0.23549 -0.10869,-0.37135 -0.10869,-0.40758c-0.07246,-0.9782 0,-2.00168 0.21738,-3.07045c0.21738,-1.06877 0.5525,-2.09226 1.00537,-3.07045c0.45287,-0.9782 0.98726,-1.89299 1.60316,-2.74439c0.6159,-0.85139 1.30426,-1.54881 2.06508,-2.09226c0.07246,-0.07246 0.27172,-0.15398 0.59779,-0.24455c0.32607,-0.09057 0.54344,-0.17209 0.65213,-0.24455c0.54344,-0.21738 1.13217,-0.5525 1.76619,-1.00537c0.63402,-0.45287 1.29521,-0.90574 1.98357,-1.35861c0.68836,-0.45287 1.37672,-0.84234 2.06508,-1.1684c0.68836,-0.32607 1.34049,-0.4891 1.9564,-0.4891c0.6159,0 1.32238,0.13586 2.11943,0.40758c0.79705,0.27172 1.4673,0.49816 2.01074,0.6793c0.9782,0.32607 1.92017,0.63402 2.8259,0.92385c0.90574,0.28984 1.71185,0.67025 2.41832,1.14123c0.70648,0.47098 1.26803,1.06877 1.68467,1.79336c0.41664,0.72459 0.62496,1.66656 0.62496,2.8259c0,0.39852 -0.04529,0.96914 -0.13586,1.71185c-0.09057,0.74271 -0.24455,1.4673 -0.46193,2.17377c-0.21738,0.70648 -0.52533,1.32238 -0.92385,1.84771c-0.39852,0.52533 -0.90574,0.78799 -1.52164,0.78799h-0.32607c-0.07246,-0.07246 -0.19926,-0.32607 -0.38041,-0.76082c-0.18115,-0.43475 -0.30795,-0.68836 -0.38041,-0.76082c-0.50721,-0.90574 -1.05971,-1.77525 -1.6575,-2.60853c-0.59779,-0.83328 -1.26803,-1.56693 -2.01074,-2.20094c-0.74271,-0.63402 -1.54881,-1.13217 -2.41832,-1.49447c-0.86951,-0.3623 -1.84771,-0.54344 -2.93459,-0.54344c-0.32607,0 -0.70648,0.01811 -1.14123,0.05434c-0.43475,0.03623 -0.81516,0.16303 -1.14123,0.38041c-1.2318,0.94197 -2.16472,1.93828 -2.79873,2.98894c-0.63402,1.05066 -0.95103,2.37304 -0.95103,3.96713c0,0.86951 0.19926,1.6575 0.59779,2.36398c0.39852,0.70648 0.90574,1.33144 1.52164,1.87488c0.6159,0.54344 1.30426,1.01443 2.06508,1.41295c0.76082,0.39852 1.50353,0.70648 2.22812,0.92385c0.03623,0.03623 0.16303,0.07246 0.38041,0.10869c0.21738,0.03623 0.46193,0.07246 0.73365,0.10869c0.27172,0.03623 0.51627,0.07246 0.73365,0.10869c0.21738,0.03623 0.34418,0.05434 0.38041,0.05434c0.07246,0 0.19926,0.0634 0.38041,0.19021c0.18115,0.1268 0.30795,0.19021 0.38041,0.19021c0.79705,0.57967 1.62127,1.15029 2.47267,1.71185c0.85139,0.56156 1.68467,1.14123 2.49984,1.73902c0.81516,0.59779 1.60316,1.24086 2.36398,1.92922c0.76082,0.68836 1.44918,1.43107 2.06508,2.22812c0.03623,0.03623 0.10869,0.16303 0.21738,0.38041c0.10869,0.21738 0.22643,0.46193 0.35324,0.73365c0.1268,0.27172 0.24455,0.54344 0.35324,0.81516c0.10869,0.27172 0.19926,0.48004 0.27172,0.62496c0,0.07246 0.00906,0.21738 0.02717,0.43475c0.01811,0.21738 0.04529,0.45287 0.08152,0.70648c0.03623,0.25361 0.08152,0.49816 0.13586,0.73365c0.05434,0.23549 0.09963,0.37135 0.13586,0.40758c0.14492,0.43475 0.32607,0.82422 0.54344,1.1684c0.21738,0.34418 0.4257,0.6793 0.62496,1.00537c0.19926,0.32607 0.37135,0.65213 0.51627,0.9782c0.14492,0.32607 0.21738,0.70648 0.21738,1.14123c0,1.15935 -0.25361,2.22812 -0.76082,3.20631c-0.50721,0.9782 -1.01443,2.01074 -1.52164,3.09763c-0.47098,0.76082 -1.08689,1.50353 -1.84771,2.22812c-0.76082,0.72459 -1.39484,1.32238 -1.90205,1.79336c-1.44918,1.26803 -3.11574,2.16472 -4.99968,2.69004c-1.88394,0.52533 -3.69541,0.78799 -5.43443,0.78799c-1.30426,0 -2.62664,-0.07246 -3.96713,-0.21738c-1.34049,-0.14492 -2.59041,-0.47098 -3.74976,-0.9782c-0.03623,-0.03623 -0.16303,-0.11775 -0.38041,-0.24455c-0.21738,-0.1268 -0.46193,-0.27172 -0.73365,-0.43475c-0.27172,-0.16303 -0.52533,-0.31701 -0.76082,-0.46193c-0.23549,-0.14492 -0.38947,-0.23549 -0.46193,-0.27172c-0.72459,-0.43475 -1.36767,-0.82422 -1.92922,-1.1684c-0.56156,-0.34418 -1.02348,-0.73365 -1.38578,-1.1684c-0.3623,-0.43475 -0.63402,-0.96008 -0.81516,-1.57599c-0.18115,-0.6159 -0.27172,-1.41295 -0.27172,-2.39115z" data-paper-data="{&quot;elementType&quot;:&quot;letter&quot;,&quot;baseline&quot;:44.921875,&quot;baselineProportion&quot;:0.9766454352441614,&quot;fontSize&quot;:100}"></path></g></g><g data-paper-data="{&quot;baseline&quot;:75.5859375,&quot;elementType&quot;:&quot;row&quot;}"><g data-paper-data="{&quot;baselineProportion&quot;:0.9859872611464968,&quot;fontSize&quot;:100,&quot;baseline&quot;:75.5859375,&quot;elementType&quot;:&quot;word&quot;}"><path d="M150.63141,440.16365v-3.04328v-2.98894c0,-0.03623 0.01811,-0.16303 0.05434,-0.38041c0.03623,-0.21738 0.07246,-0.46193 0.10869,-0.73365c0.03623,-0.27172 0.07246,-0.56156 0.10869,-0.86951c0.03623,-0.30795 0.05434,-0.5525 0.05434,-0.73365c0.07246,-0.07246 0.16303,-0.3623 0.27172,-0.86951c0.10869,-0.50721 0.16303,-0.85139 0.16303,-1.03254v-5.05402v-1.9564c0,-0.10869 0.04529,-0.37135 0.13586,-0.78799c0.09057,-0.41664 0.17209,-0.66119 0.24455,-0.73365v-9.02116c0,-0.21738 -0.07246,-0.41664 -0.21738,-0.59779c-0.14492,-0.18115 -0.32607,-0.33512 -0.54344,-0.46193c-0.21738,-0.1268 -0.4257,-0.23549 -0.62496,-0.32607c-0.19926,-0.09057 -0.35324,-0.17209 -0.46193,-0.24455c-0.47098,-0.18115 -0.9148,-0.29889 -1.33144,-0.35324c-0.41664,-0.05434 -0.78799,-0.14492 -1.11406,-0.27172c-0.32607,-0.1268 -0.57967,-0.32607 -0.76082,-0.59779c-0.18115,-0.27172 -0.27172,-0.73365 -0.27172,-1.38578v-0.65213c0,-0.14492 0.01811,-0.30795 0.05434,-0.4891c0.03623,-0.03623 0.14492,-0.14492 0.32607,-0.32607c0.18115,-0.18115 0.38947,-0.37135 0.62496,-0.57062c0.23549,-0.19926 0.44381,-0.38947 0.62496,-0.57062c0.18115,-0.18115 0.28984,-0.30795 0.32607,-0.38041c0.10869,-0.07246 0.23549,-0.20832 0.38041,-0.40758c0.14492,-0.19926 0.28984,-0.39852 0.43475,-0.59779c0.14492,-0.19926 0.28078,-0.38947 0.40758,-0.57062c0.1268,-0.18115 0.22643,-0.28984 0.29889,-0.32607c0.86951,-0.94197 1.58504,-1.7843 2.1466,-2.52701c0.56156,-0.74271 1.22275,-1.36767 1.98357,-1.87488c0.47098,-0.39852 1.00537,-0.86045 1.60316,-1.38578c0.59779,-0.52533 1.18652,-0.78799 1.76619,-0.78799c0.94197,0 1.66656,0.20832 2.17377,0.62496c0.50721,0.41664 0.89668,0.94197 1.1684,1.57599c0.27172,0.63402 0.48004,1.33144 0.62496,2.09226c0.14492,0.76082 0.32607,1.48541 0.54344,2.17377h0.4891c0.21738,0 0.4257,0.01811 0.62496,0.05434c0.19926,0.03623 0.38947,0.05434 0.57062,0.05434c0.14492,0 0.29889,-0.01811 0.46193,-0.05434c0.16303,-0.03623 0.31701,-0.07246 0.46193,-0.10869c0.28984,-0.10869 0.56156,-0.17209 0.81516,-0.19021c0.25361,-0.01811 0.52533,-0.02717 0.81516,-0.02717c0.39852,0 0.81516,0.01811 1.24992,0.05434c0.43475,0.03623 0.86951,0.05434 1.30426,0.05434c0.47098,0 1.00537,0.09963 1.60316,0.29889c0.59779,0.19926 1.1684,0.46193 1.71185,0.78799c0.54344,0.32607 0.99631,0.70648 1.35861,1.14123c0.3623,0.43475 0.54344,0.88762 0.54344,1.35861c0,0.28984 -0.13586,0.6159 -0.40758,0.9782c-0.27172,0.3623 -0.60684,0.70648 -1.00537,1.03254c-0.39852,0.32607 -0.80611,0.59779 -1.22275,0.81516c-0.41664,0.21738 -0.78799,0.32607 -1.11406,0.32607h-0.76082c-0.03623,0 -0.14492,-0.00906 -0.32607,-0.02717c-0.18115,-0.01811 -0.38041,-0.02717 -0.59779,-0.02717c-0.21738,0 -0.41664,0 -0.59779,0c-0.18115,0 -0.28984,0 -0.32607,0h-2.66287h-2.49984c-0.9782,0.65213 -1.66656,1.43107 -2.06508,2.33681c-0.32607,0.94197 -0.49816,1.92017 -0.51627,2.93459c-0.01811,1.01443 -0.0634,2.04697 -0.13586,3.09763c-0.18115,0.72459 -0.35324,1.47635 -0.51627,2.25529c-0.16303,0.77894 -0.24455,1.58504 -0.24455,2.41832c0,0.57967 0.0634,1.1684 0.19021,1.76619c0.1268,0.59779 0.19021,1.20463 0.19021,1.82053c0,0.39852 -0.08152,0.81516 -0.24455,1.24992c-0.16303,0.43475 -0.24455,0.88762 -0.24455,1.35861c0,0.28984 0.01811,0.50721 0.05434,0.65213c0,0.14492 0.01811,0.27172 0.05434,0.38041c0,0.10869 0.03623,0.29889 0.10869,0.57062c0.07246,0.27172 0.16303,0.5525 0.27172,0.84234c0.10869,0.28984 0.19926,0.57062 0.27172,0.84234c0.07246,0.27172 0.10869,0.44381 0.10869,0.51627c0,0.07246 0.03623,0.31701 0.10869,0.73365c0.07246,0.41664 0.15398,0.86045 0.24455,1.33144c0.09057,0.47098 0.16303,0.90574 0.21738,1.30426c0.05434,0.39852 0.08152,0.65213 0.08152,0.76082c0.07246,0.25361 0.13586,0.54344 0.19021,0.86951c0.05434,0.32607 0.13586,0.65213 0.24455,0.9782c0.10869,0.32607 0.25361,0.62496 0.43475,0.89668c0.18115,0.27172 0.41664,0.48004 0.70648,0.62496c0.14492,0.03623 0.35324,0.10869 0.62496,0.21738c0.27172,0.10869 0.54344,0.22643 0.81516,0.35324c0.27172,0.1268 0.52533,0.24455 0.76082,0.35324c0.23549,0.10869 0.37135,0.18115 0.40758,0.21738h2.28246h2.28246c0.47098,-0.25361 0.9148,-0.51627 1.33144,-0.78799c0.41664,-0.27172 0.84234,-0.52533 1.27709,-0.76082c0.43475,-0.23549 0.88762,-0.43475 1.35861,-0.59779c0.47098,-0.16303 0.99631,-0.24455 1.57599,-0.24455c0.54344,0 0.87857,0.20832 1.00537,0.62496c0.1268,0.41664 0.19021,0.87857 0.19021,1.38578v0.76082c0,1.48541 -0.47098,2.73533 -1.41295,3.74976c-0.94197,1.01443 -2.09226,1.82959 -3.45086,2.44549c-1.35861,0.6159 -2.78967,1.05066 -4.2932,1.30426c-1.50353,0.25361 -2.83496,0.38041 -3.99431,0.38041c-0.43475,0 -0.9148,-0.00906 -1.44012,-0.02717c-0.52533,-0.01811 -1.06877,-0.07246 -1.63033,-0.16303c-0.56156,-0.09057 -1.11406,-0.21738 -1.6575,-0.38041c-0.54344,-0.16303 -1.01443,-0.38947 -1.41295,-0.6793l-1.41295,-1.41295c-0.83328,-0.9782 -1.66656,-1.97451 -2.49984,-2.98894c-0.83328,-1.01443 -1.50353,-2.13754 -2.01074,-3.36935z" data-paper-data="{&quot;elementType&quot;:&quot;letter&quot;,&quot;baseline&quot;:47.216796875,&quot;baselineProportion&quot;:0.9928131416837782,&quot;fontSize&quot;:100}"></path><path d="M199.48694,449.18481c-0.3623,-0.21738 -0.76988,-0.38041 -1.22275,-0.4891c-0.45287,-0.10869 -0.90574,-0.20832 -1.35861,-0.29889c-0.45287,-0.09057 -0.88762,-0.19021 -1.30426,-0.29889c-0.41664,-0.10869 -0.76988,-0.25361 -1.05971,-0.43475c-0.14492,-0.10869 -0.39852,-0.29889 -0.76082,-0.57062c-0.3623,-0.27172 -0.74271,-0.57062 -1.14123,-0.89668c-0.39852,-0.32607 -0.77894,-0.64307 -1.14123,-0.95103c-0.3623,-0.30795 -0.6159,-0.53439 -0.76082,-0.6793c-0.21738,-0.21738 -0.54344,-0.53439 -0.9782,-0.95103c-0.43475,-0.41664 -0.86951,-0.84234 -1.30426,-1.27709c-0.43475,-0.43475 -0.82422,-0.83328 -1.1684,-1.19557c-0.34418,-0.3623 -0.53439,-0.59779 -0.57062,-0.70648c-0.03623,0 -0.14492,-0.15398 -0.32607,-0.46193c-0.18115,-0.30795 -0.39852,-0.6793 -0.65213,-1.11406c-0.25361,-0.43475 -0.50721,-0.87857 -0.76082,-1.33144c-0.25361,-0.45287 -0.45287,-0.82422 -0.59779,-1.11406c-0.18115,-0.3623 -0.40758,-0.80611 -0.6793,-1.33144c-0.27172,-0.52533 -0.52533,-1.05971 -0.76082,-1.60316c-0.23549,-0.54344 -0.43475,-1.07783 -0.59779,-1.60316c-0.16303,-0.52533 -0.24455,-0.96914 -0.24455,-1.33144v-9.40157c0.28984,-0.79705 0.53439,-1.63033 0.73365,-2.49984c0.19926,-0.86951 0.33512,-1.77525 0.40758,-2.71722c0.10869,-0.21738 0.29889,-0.59779 0.57062,-1.14123c0.27172,-0.54344 0.57062,-1.11406 0.89668,-1.71185c0.32607,-0.59779 0.63402,-1.15935 0.92385,-1.68467c0.28984,-0.52533 0.4891,-0.89668 0.59779,-1.11406c0.54344,-0.90574 1.15029,-1.70279 1.82053,-2.39115c0.67025,-0.68836 1.38578,-1.30426 2.1466,-1.84771c0.76082,-0.54344 1.56693,-1.0416 2.41832,-1.49447c0.85139,-0.45287 1.72996,-0.93291 2.6357,-1.44012c0.94197,-0.47098 2.00168,-0.81516 3.17914,-1.03254c1.17746,-0.21738 2.29152,-0.4891 3.34218,-0.81516c0.39852,-0.18115 0.77894,-0.37135 1.14123,-0.57062c0.3623,-0.19926 0.79705,-0.29889 1.30426,-0.29889c0.03623,0 0.11775,0 0.24455,0c0.1268,0 0.22643,0.03623 0.29889,0.10869c0.07246,0 0.31701,0.0634 0.73365,0.19021c0.41664,0.1268 0.6793,0.19021 0.78799,0.19021h2.60853c0.50721,0 0.93291,0.09963 1.27709,0.29889c0.34418,0.19926 0.66119,0.40758 0.95103,0.62496c0.28984,0.21738 0.57967,0.4257 0.86951,0.62496c0.28984,0.19926 0.63402,0.29889 1.03254,0.29889h2.44549h0.9782c0.03623,0 0.13586,0.05434 0.29889,0.16303c0.16303,0.10869 0.32607,0.22643 0.4891,0.35324c0.16303,0.1268 0.31701,0.24455 0.46193,0.35324c0.14492,0.10869 0.21738,0.16303 0.21738,0.16303c0.07246,0.10869 0.21738,0.19926 0.43475,0.27172c0.21738,0.07246 0.3623,0.14492 0.43475,0.21738c0.07246,0 0.3623,0.04529 0.86951,0.13586c0.50721,0.09057 0.83328,0.17209 0.9782,0.24455c0.25361,0.10869 0.44381,0.26266 0.57062,0.46193c0.1268,0.19926 0.21738,0.40758 0.27172,0.62496c0.05434,0.21738 0.11775,0.4257 0.19021,0.62496c0.07246,0.19926 0.19926,0.37135 0.38041,0.51627c0.03623,0.03623 0.13586,0.10869 0.29889,0.21738c0.16303,0.10869 0.32607,0.22643 0.4891,0.35324c0.16303,0.1268 0.31701,0.24455 0.46193,0.35324c0.14492,0.10869 0.23549,0.18115 0.27172,0.21738c0.07246,0 0.15398,0.04529 0.24455,0.13586c0.09057,0.09057 0.13586,0.17209 0.13586,0.24455c0.21738,0.21738 0.48004,0.4891 0.78799,0.81516c0.30795,0.32607 0.60684,0.65213 0.89668,0.9782c0.28984,0.32607 0.53439,0.6159 0.73365,0.86951c0.19926,0.25361 0.29889,0.39852 0.29889,0.43475c0.03623,0.03623 0.0634,0.16303 0.08152,0.38041c0.01811,0.21738 0.04529,0.45287 0.08152,0.70648c0.03623,0.25361 0.0634,0.4891 0.08152,0.70648c0.01811,0.21738 0.02717,0.34418 0.02717,0.38041c0.03623,0.10869 0.11775,0.33512 0.24455,0.6793c0.1268,0.34418 0.25361,0.69742 0.38041,1.05971c0.1268,0.3623 0.24455,0.71553 0.35324,1.05971c0.10869,0.34418 0.19926,0.57062 0.27172,0.6793v10.92321c0,0.10869 -0.02717,0.31701 -0.08152,0.62496c-0.05434,0.30795 -0.1268,0.66119 -0.21738,1.05971c-0.09057,0.39852 -0.19021,0.78799 -0.29889,1.1684c-0.10869,0.38041 -0.19926,0.6793 -0.27172,0.89668c0,0.07246 -0.09057,0.32607 -0.27172,0.76082c-0.18115,0.43475 -0.30795,0.68836 -0.38041,0.76082c-0.21738,0.6159 -0.37135,1.26803 -0.46193,1.9564c-0.09057,0.68836 -0.33512,1.28615 -0.73365,1.79336c0,0.03623 -0.10869,0.16303 -0.32607,0.38041c-0.10869,0.10869 -0.21738,0.23549 -0.32607,0.38041c-0.57967,0.72459 -1.07783,1.57599 -1.49447,2.55418c-0.41664,0.9782 -0.95103,1.75713 -1.60316,2.33681c-0.68836,0.65213 -1.45824,1.18652 -2.30963,1.60316c-0.85139,0.41664 -1.56693,0.9148 -2.1466,1.49447c-0.07246,0 -0.19926,0.09057 -0.38041,0.27172c-0.18115,0.18115 -0.37135,0.38041 -0.57062,0.59779c-0.19926,0.21738 -0.38947,0.4257 -0.57062,0.62496c-0.18115,0.19926 -0.28984,0.31701 -0.32607,0.35324c-0.10869,0.03623 -0.31701,0.10869 -0.62496,0.21738c-0.30795,0.10869 -0.64307,0.22643 -1.00537,0.35324c-0.3623,0.1268 -0.71553,0.24455 -1.05971,0.35324c-0.34418,0.10869 -0.60684,0.18115 -0.78799,0.21738c-0.07246,0 -0.31701,0.02717 -0.73365,0.08152c-0.41664,0.05434 -0.88762,0.1268 -1.41295,0.21738c-0.52533,0.09057 -1.05066,0.18115 -1.57599,0.27172c-0.52533,0.09057 -0.9148,0.15398 -1.1684,0.19021h-0.38041h-0.38041c-0.25361,0 -0.70648,-0.01811 -1.35861,-0.05434c-0.65213,-0.03623 -1.34049,-0.08152 -2.06508,-0.13586c-0.72459,-0.05434 -1.40389,-0.09963 -2.03791,-0.13586c-0.63402,-0.03623 -1.07783,-0.05434 -1.33144,-0.05434zM192.36784,426.14282c0,1.88394 0.32607,3.65013 0.9782,5.29857c0.65213,1.64844 1.44918,3.30595 2.39115,4.9725c0.25361,0.43475 0.45287,0.86045 0.59779,1.27709c0.14492,0.41664 0.30795,0.81516 0.4891,1.19557c0.18115,0.38041 0.40758,0.73365 0.6793,1.05971c0.27172,0.32607 0.66119,0.6159 1.1684,0.86951c0.07246,0.03623 0.20832,0.09057 0.40758,0.16303c0.19926,0.07246 0.39852,0.16303 0.59779,0.27172c0.19926,0.10869 0.38947,0.19926 0.57062,0.27172c0.18115,0.07246 0.27172,0.1268 0.27172,0.16303c0.3623,0.21738 0.67025,0.47098 0.92385,0.76082c0.25361,0.28984 0.51627,0.56156 0.78799,0.81516c0.27172,0.25361 0.56156,0.47098 0.86951,0.65213c0.30795,0.18115 0.6793,0.27172 1.11406,0.27172c1.08689,0 2.11037,-0.23549 3.07045,-0.70648c0.96008,-0.47098 1.86582,-1.06877 2.71722,-1.79336c0.85139,-0.72459 1.6575,-1.49447 2.41832,-2.30963c0.76082,-0.81516 1.4673,-1.58504 2.11943,-2.30963c0.25361,-0.90574 0.56156,-1.62127 0.92385,-2.1466c0.3623,-0.52533 0.68836,-1.18652 0.9782,-1.98357c0.39852,-1.05066 0.63402,-2.03791 0.70648,-2.96177c0.07246,-0.92385 0.10869,-1.91111 0.10869,-2.96177c0,-1.84771 -0.17209,-3.7407 -0.51627,-5.67898c-0.34418,-1.93828 -0.86045,-3.82222 -1.54881,-5.65181c-0.68836,-1.82959 -1.55787,-3.56861 -2.60853,-5.21705c-1.05066,-1.64844 -2.28246,-3.08857 -3.69541,-4.32037c-0.18115,0 -0.54344,-0.01811 -1.08689,-0.05434c-0.54344,-0.03623 -0.90574,-0.05434 -1.08689,-0.05434c-1.70279,0 -3.33312,0.27172 -4.89099,0.81516c-1.55787,0.54344 -2.8259,1.55787 -3.8041,3.04328c-0.18115,0.18115 -0.41664,0.47098 -0.70648,0.86951c-0.28984,0.39852 -0.47098,0.63402 -0.54344,0.70648c-0.07246,0 -0.26266,0.09963 -0.57062,0.29889c-0.30795,0.19926 -0.46193,0.31701 -0.46193,0.35324c-0.14492,0.14492 -0.30795,0.35324 -0.4891,0.62496c-0.18115,0.27172 -0.30795,0.48004 -0.38041,0.62496c0,0.03623 -0.00906,0.18115 -0.02717,0.43475c-0.01811,0.25361 -0.04529,0.52533 -0.08152,0.81516c-0.03623,0.28984 -0.07246,0.57062 -0.10869,0.84234c-0.03623,0.27172 -0.07246,0.4257 -0.10869,0.46193c0,0.14492 -0.11775,0.40758 -0.35324,0.78799c-0.23549,0.38041 -0.35324,0.60684 -0.35324,0.6793c-0.21738,0.47098 -0.37135,0.9782 -0.46193,1.52164c-0.09057,0.54344 -0.20832,1.06877 -0.35324,1.57599c-0.03623,0.25361 -0.09057,0.63402 -0.16303,1.14123c-0.07246,0.50721 -0.14492,1.01443 -0.21738,1.52164c-0.07246,0.50721 -0.13586,0.96914 -0.19021,1.38578c-0.05434,0.41664 -0.08152,0.6793 -0.08152,0.78799v0.81516" data-paper-data="{&quot;elementType&quot;:&quot;letter&quot;,&quot;baseline&quot;:43.505859375,&quot;baselineProportion&quot;:0.9845303867403314,&quot;fontSize&quot;:100}"></path><path d="M253.61388,449.18481c-0.3623,-0.21738 -0.76988,-0.38041 -1.22275,-0.4891c-0.45287,-0.10869 -0.90574,-0.20832 -1.35861,-0.29889c-0.45287,-0.09057 -0.88762,-0.19021 -1.30426,-0.29889c-0.41664,-0.10869 -0.76988,-0.25361 -1.05971,-0.43475c-0.14492,-0.10869 -0.39852,-0.29889 -0.76082,-0.57062c-0.3623,-0.27172 -0.74271,-0.57062 -1.14123,-0.89668c-0.39852,-0.32607 -0.77894,-0.64307 -1.14123,-0.95103c-0.3623,-0.30795 -0.6159,-0.53439 -0.76082,-0.6793c-0.21738,-0.21738 -0.54344,-0.53439 -0.9782,-0.95103c-0.43475,-0.41664 -0.86951,-0.84234 -1.30426,-1.27709c-0.43475,-0.43475 -0.82422,-0.83328 -1.1684,-1.19557c-0.34418,-0.3623 -0.53439,-0.59779 -0.57062,-0.70648c-0.03623,0 -0.14492,-0.15398 -0.32607,-0.46193c-0.18115,-0.30795 -0.39852,-0.6793 -0.65213,-1.11406c-0.25361,-0.43475 -0.50721,-0.87857 -0.76082,-1.33144c-0.25361,-0.45287 -0.45287,-0.82422 -0.59779,-1.11406c-0.18115,-0.3623 -0.40758,-0.80611 -0.6793,-1.33144c-0.27172,-0.52533 -0.52533,-1.05971 -0.76082,-1.60316c-0.23549,-0.54344 -0.43475,-1.07783 -0.59779,-1.60316c-0.16303,-0.52533 -0.24455,-0.96914 -0.24455,-1.33144v-9.40157c0.28984,-0.79705 0.53439,-1.63033 0.73365,-2.49984c0.19926,-0.86951 0.33512,-1.77525 0.40758,-2.71722c0.10869,-0.21738 0.29889,-0.59779 0.57062,-1.14123c0.27172,-0.54344 0.57062,-1.11406 0.89668,-1.71185c0.32607,-0.59779 0.63402,-1.15935 0.92385,-1.68467c0.28984,-0.52533 0.4891,-0.89668 0.59779,-1.11406c0.54344,-0.90574 1.15029,-1.70279 1.82053,-2.39115c0.67025,-0.68836 1.38578,-1.30426 2.1466,-1.84771c0.76082,-0.54344 1.56693,-1.0416 2.41832,-1.49447c0.85139,-0.45287 1.72996,-0.93291 2.6357,-1.44012c0.94197,-0.47098 2.00168,-0.81516 3.17914,-1.03254c1.17746,-0.21738 2.29152,-0.4891 3.34218,-0.81516c0.39852,-0.18115 0.77894,-0.37135 1.14123,-0.57062c0.3623,-0.19926 0.79705,-0.29889 1.30426,-0.29889c0.03623,0 0.11775,0 0.24455,0c0.1268,0 0.22643,0.03623 0.29889,0.10869c0.07246,0 0.31701,0.0634 0.73365,0.19021c0.41664,0.1268 0.6793,0.19021 0.78799,0.19021h2.60853c0.50721,0 0.93291,0.09963 1.27709,0.29889c0.34418,0.19926 0.66119,0.40758 0.95103,0.62496c0.28984,0.21738 0.57967,0.4257 0.86951,0.62496c0.28984,0.19926 0.63402,0.29889 1.03254,0.29889h2.44549h0.9782c0.03623,0 0.13586,0.05434 0.29889,0.16303c0.16303,0.10869 0.32607,0.22643 0.4891,0.35324c0.16303,0.1268 0.31701,0.24455 0.46193,0.35324c0.14492,0.10869 0.21738,0.16303 0.21738,0.16303c0.07246,0.10869 0.21738,0.19926 0.43475,0.27172c0.21738,0.07246 0.3623,0.14492 0.43475,0.21738c0.07246,0 0.3623,0.04529 0.86951,0.13586c0.50721,0.09057 0.83328,0.17209 0.9782,0.24455c0.25361,0.10869 0.44381,0.26266 0.57062,0.46193c0.1268,0.19926 0.21738,0.40758 0.27172,0.62496c0.05434,0.21738 0.11775,0.4257 0.19021,0.62496c0.07246,0.19926 0.19926,0.37135 0.38041,0.51627c0.03623,0.03623 0.13586,0.10869 0.29889,0.21738c0.16303,0.10869 0.32607,0.22643 0.4891,0.35324c0.16303,0.1268 0.31701,0.24455 0.46193,0.35324c0.14492,0.10869 0.23549,0.18115 0.27172,0.21738c0.07246,0 0.15398,0.04529 0.24455,0.13586c0.09057,0.09057 0.13586,0.17209 0.13586,0.24455c0.21738,0.21738 0.48004,0.4891 0.78799,0.81516c0.30795,0.32607 0.60684,0.65213 0.89668,0.9782c0.28984,0.32607 0.53439,0.6159 0.73365,0.86951c0.19926,0.25361 0.29889,0.39852 0.29889,0.43475c0.03623,0.03623 0.0634,0.16303 0.08152,0.38041c0.01811,0.21738 0.04529,0.45287 0.08152,0.70648c0.03623,0.25361 0.0634,0.4891 0.08152,0.70648c0.01811,0.21738 0.02717,0.34418 0.02717,0.38041c0.03623,0.10869 0.11775,0.33512 0.24455,0.6793c0.1268,0.34418 0.25361,0.69742 0.38041,1.05971c0.1268,0.3623 0.24455,0.71553 0.35324,1.05971c0.10869,0.34418 0.19926,0.57062 0.27172,0.6793v10.92321c0,0.10869 -0.02717,0.31701 -0.08152,0.62496c-0.05434,0.30795 -0.1268,0.66119 -0.21738,1.05971c-0.09057,0.39852 -0.19021,0.78799 -0.29889,1.1684c-0.10869,0.38041 -0.19926,0.6793 -0.27172,0.89668c0,0.07246 -0.09057,0.32607 -0.27172,0.76082c-0.18115,0.43475 -0.30795,0.68836 -0.38041,0.76082c-0.21738,0.6159 -0.37135,1.26803 -0.46193,1.9564c-0.09057,0.68836 -0.33512,1.28615 -0.73365,1.79336c0,0.03623 -0.10869,0.16303 -0.32607,0.38041c-0.10869,0.10869 -0.21738,0.23549 -0.32607,0.38041c-0.57967,0.72459 -1.07783,1.57599 -1.49447,2.55418c-0.41664,0.9782 -0.95103,1.75713 -1.60316,2.33681c-0.68836,0.65213 -1.45824,1.18652 -2.30963,1.60316c-0.85139,0.41664 -1.56693,0.9148 -2.1466,1.49447c-0.07246,0 -0.19926,0.09057 -0.38041,0.27172c-0.18115,0.18115 -0.37135,0.38041 -0.57062,0.59779c-0.19926,0.21738 -0.38947,0.4257 -0.57062,0.62496c-0.18115,0.19926 -0.28984,0.31701 -0.32607,0.35324c-0.10869,0.03623 -0.31701,0.10869 -0.62496,0.21738c-0.30795,0.10869 -0.64307,0.22643 -1.00537,0.35324c-0.3623,0.1268 -0.71553,0.24455 -1.05971,0.35324c-0.34418,0.10869 -0.60684,0.18115 -0.78799,0.21738c-0.07246,0 -0.31701,0.02717 -0.73365,0.08152c-0.41664,0.05434 -0.88762,0.1268 -1.41295,0.21738c-0.52533,0.09057 -1.05066,0.18115 -1.57599,0.27172c-0.52533,0.09057 -0.9148,0.15398 -1.1684,0.19021h-0.38041h-0.38041c-0.25361,0 -0.70648,-0.01811 -1.35861,-0.05434c-0.65213,-0.03623 -1.34049,-0.08152 -2.06508,-0.13586c-0.72459,-0.05434 -1.40389,-0.09963 -2.03791,-0.13586c-0.63402,-0.03623 -1.07783,-0.05434 -1.33144,-0.05434zM246.49478,426.14282c0,1.88394 0.32607,3.65013 0.9782,5.29857c0.65213,1.64844 1.44918,3.30595 2.39115,4.9725c0.25361,0.43475 0.45287,0.86045 0.59779,1.27709c0.14492,0.41664 0.30795,0.81516 0.4891,1.19557c0.18115,0.38041 0.40758,0.73365 0.6793,1.05971c0.27172,0.32607 0.66119,0.6159 1.1684,0.86951c0.07246,0.03623 0.20832,0.09057 0.40758,0.16303c0.19926,0.07246 0.39852,0.16303 0.59779,0.27172c0.19926,0.10869 0.38947,0.19926 0.57062,0.27172c0.18115,0.07246 0.27172,0.1268 0.27172,0.16303c0.3623,0.21738 0.67025,0.47098 0.92385,0.76082c0.25361,0.28984 0.51627,0.56156 0.78799,0.81516c0.27172,0.25361 0.56156,0.47098 0.86951,0.65213c0.30795,0.18115 0.6793,0.27172 1.11406,0.27172c1.08689,0 2.11037,-0.23549 3.07045,-0.70648c0.96008,-0.47098 1.86582,-1.06877 2.71722,-1.79336c0.85139,-0.72459 1.6575,-1.49447 2.41832,-2.30963c0.76082,-0.81516 1.4673,-1.58504 2.11943,-2.30963c0.25361,-0.90574 0.56156,-1.62127 0.92385,-2.1466c0.3623,-0.52533 0.68836,-1.18652 0.9782,-1.98357c0.39852,-1.05066 0.63402,-2.03791 0.70648,-2.96177c0.07246,-0.92385 0.10869,-1.91111 0.10869,-2.96177c0,-1.84771 -0.17209,-3.7407 -0.51627,-5.67898c-0.34418,-1.93828 -0.86045,-3.82222 -1.54881,-5.65181c-0.68836,-1.82959 -1.55787,-3.56861 -2.60853,-5.21705c-1.05066,-1.64844 -2.28246,-3.08857 -3.69541,-4.32037c-0.18115,0 -0.54344,-0.01811 -1.08689,-0.05434c-0.54344,-0.03623 -0.90574,-0.05434 -1.08689,-0.05434c-1.70279,0 -3.33312,0.27172 -4.89099,0.81516c-1.55787,0.54344 -2.8259,1.55787 -3.8041,3.04328c-0.18115,0.18115 -0.41664,0.47098 -0.70648,0.86951c-0.28984,0.39852 -0.47098,0.63402 -0.54344,0.70648c-0.07246,0 -0.26266,0.09963 -0.57062,0.29889c-0.30795,0.19926 -0.46193,0.31701 -0.46193,0.35324c-0.14492,0.14492 -0.30795,0.35324 -0.4891,0.62496c-0.18115,0.27172 -0.30795,0.48004 -0.38041,0.62496c0,0.03623 -0.00906,0.18115 -0.02717,0.43475c-0.01811,0.25361 -0.04529,0.52533 -0.08152,0.81516c-0.03623,0.28984 -0.07246,0.57062 -0.10869,0.84234c-0.03623,0.27172 -0.07246,0.4257 -0.10869,0.46193c0,0.14492 -0.11775,0.40758 -0.35324,0.78799c-0.23549,0.38041 -0.35324,0.60684 -0.35324,0.6793c-0.21738,0.47098 -0.37135,0.9782 -0.46193,1.52164c-0.09057,0.54344 -0.20832,1.06877 -0.35324,1.57599c-0.03623,0.25361 -0.09057,0.63402 -0.16303,1.14123c-0.07246,0.50721 -0.14492,1.01443 -0.21738,1.52164c-0.07246,0.50721 -0.13586,0.96914 -0.19021,1.38578c-0.05434,0.41664 -0.08152,0.6793 -0.08152,0.78799v0.81516" data-paper-data="{&quot;elementType&quot;:&quot;letter&quot;,&quot;baseline&quot;:43.505859375,&quot;baselineProportion&quot;:0.9845303867403314,&quot;fontSize&quot;:100}"></path><path d="M299.04573,448.3153h-0.38041c-1.26803,0.25361 -2.55418,0.46193 -3.85845,0.62496c-1.30426,0.16303 -2.62664,0.24455 -3.96713,0.24455c-1.05066,0 -1.87488,-0.21738 -2.47267,-0.65213c-0.59779,-0.43475 -1.1684,-1.12312 -1.71185,-2.06508c-0.18115,-0.25361 -0.28984,-0.43475 -0.32607,-0.54344c-0.03623,-0.10869 -0.05434,-0.30795 -0.05434,-0.59779c0,-0.28984 0.10869,-0.56156 0.32607,-0.81516c0.21738,-0.25361 0.48004,-0.4891 0.78799,-0.70648c0.30795,-0.21738 0.63402,-0.38947 0.9782,-0.51627c0.34418,-0.1268 0.64307,-0.20832 0.89668,-0.24455h4.51058c0.14492,0 0.3623,-0.09963 0.65213,-0.29889c0.28984,-0.19926 0.59779,-0.41664 0.92385,-0.65213c0.32607,-0.23549 0.62496,-0.48004 0.89668,-0.73365c0.27172,-0.25361 0.44381,-0.43475 0.51627,-0.54344c0.07246,-0.03623 0.15398,-0.16303 0.24455,-0.38041c0.09057,-0.21738 0.17209,-0.45287 0.24455,-0.70648c0.07246,-0.25361 0.13586,-0.4891 0.19021,-0.70648c0.05434,-0.21738 0.08152,-0.38041 0.08152,-0.4891c-0.03623,-0.54344 -0.07246,-1.105 -0.10869,-1.68467c-0.03623,-0.57967 -0.05434,-1.17746 -0.05434,-1.79336c0,-2.10131 0.09057,-4.22074 0.27172,-6.35828c0.18115,-2.13754 0.27172,-4.23886 0.27172,-6.30394v-1.03254v-2.71722c0.03623,-0.10869 0.07246,-0.34418 0.10869,-0.70648c0.03623,-0.3623 0.07246,-0.76082 0.10869,-1.19557c0.03623,-0.43475 0.07246,-0.83328 0.10869,-1.19557c0.03623,-0.3623 0.09057,-0.59779 0.16303,-0.70648v-0.81516c0,-0.72459 -0.08152,-1.44012 -0.24455,-2.1466c-0.16303,-0.70648 -0.24455,-1.44012 -0.24455,-2.20094c0,-0.50721 0.02717,-0.90574 0.08152,-1.19557c0.05434,-0.28984 0.28078,-0.67025 0.6793,-1.14123c-0.07246,-0.25361 -0.10869,-0.69742 -0.10869,-1.33144c0,-0.63402 0,-1.31332 0,-2.03791c0,-0.72459 0,-1.41295 0,-2.06508c0,-0.65213 0.03623,-1.12312 0.10869,-1.41295c0,-0.07246 0.0634,-0.30795 0.19021,-0.70648c0.1268,-0.39852 0.19021,-0.67025 0.19021,-0.81516v-0.54344c0,-0.28984 -0.01811,-0.5525 -0.05434,-0.78799c-0.03623,-0.23549 -0.14492,-0.53439 -0.32607,-0.89668v-7.55386c-0.03623,-0.07246 -0.09057,-0.20832 -0.16303,-0.40758c-0.07246,-0.19926 -0.14492,-0.41664 -0.21738,-0.65213c-0.07246,-0.23549 -0.14492,-0.46193 -0.21738,-0.6793c-0.07246,-0.21738 -0.1268,-0.3623 -0.16303,-0.43475v-0.65213c0,-0.72459 0.08152,-1.44012 0.24455,-2.1466c0.16303,-0.70648 0.24455,-1.42201 0.24455,-2.1466c0,-0.90574 -0.08152,-1.62127 -0.24455,-2.1466c-0.16303,-0.52533 -0.37135,-1.18652 -0.62496,-1.98357c-0.21738,-0.86951 -0.47098,-1.50353 -0.76082,-1.90205c-0.28984,-0.39852 -0.90574,-0.65213 -1.84771,-0.76082c-0.18115,0 -0.48004,-0.01811 -0.89668,-0.05434c-0.41664,-0.03623 -0.86951,-0.08152 -1.35861,-0.13586c-0.4891,-0.05434 -0.95103,-0.09963 -1.38578,-0.13586c-0.43475,-0.03623 -0.72459,-0.05434 -0.86951,-0.05434c-0.14492,-0.07246 -0.40758,-0.29889 -0.78799,-0.6793c-0.38041,-0.38041 -0.66119,-0.64307 -0.84234,-0.78799v-0.76082v-0.86951c0.10869,-0.07246 0.31701,-0.22643 0.62496,-0.46193c0.30795,-0.23549 0.62496,-0.4891 0.95103,-0.76082c0.32607,-0.27172 0.63402,-0.53439 0.92385,-0.78799c0.28984,-0.25361 0.4891,-0.43475 0.59779,-0.54344c0.07246,-0.03623 0.21738,-0.09963 0.43475,-0.19021c0.21738,-0.09057 0.3623,-0.13586 0.43475,-0.13586c0.07246,-0.03623 0.28984,-0.0634 0.65213,-0.08152c0.3623,-0.01811 0.76082,-0.04529 1.19557,-0.08152c0.43475,-0.03623 0.83328,-0.07246 1.19557,-0.10869c0.3623,-0.03623 0.59779,-0.07246 0.70648,-0.10869c0.03623,-0.03623 0.18115,-0.14492 0.43475,-0.32607c0.25361,-0.18115 0.53439,-0.38947 0.84234,-0.62496c0.30795,-0.23549 0.57967,-0.45287 0.81516,-0.65213c0.23549,-0.19926 0.38947,-0.33512 0.46193,-0.40758c0.07246,0 0.21738,-0.00906 0.43475,-0.02717c0.21738,-0.01811 0.44381,-0.04529 0.6793,-0.08152c0.23549,-0.03623 0.46193,-0.07246 0.6793,-0.10869c0.21738,-0.03623 0.3623,-0.09057 0.43475,-0.16303c0.10869,0 0.30795,-0.08152 0.59779,-0.24455c0.28984,-0.16303 0.60684,-0.32607 0.95103,-0.4891c0.34418,-0.16303 0.66119,-0.32607 0.95103,-0.4891c0.28984,-0.16303 0.47098,-0.24455 0.54344,-0.24455h0.43475c0.68836,0 1.17746,0.16303 1.4673,0.4891c0.28984,0.32607 0.68836,0.65213 1.19557,0.9782c0.21738,0.18115 0.47098,0.33512 0.76082,0.46193c0.28984,0.1268 0.57062,0.28078 0.84234,0.46193c0.27172,0.18115 0.49816,0.39852 0.6793,0.65213c0.18115,0.25361 0.27172,0.57967 0.27172,0.9782v0.21738c-0.25361,1.19557 -0.50721,2.42738 -0.76082,3.69541c-0.25361,1.26803 -0.38041,2.53607 -0.38041,3.8041c0,0.47098 0.08152,0.94197 0.24455,1.41295c0.16303,0.47098 0.24455,0.94197 0.24455,1.41295v0.27172c-0.07246,0.07246 -0.15398,0.24455 -0.24455,0.51627c-0.09057,0.27172 -0.17209,0.44381 -0.24455,0.51627v10.5428c0,0.07246 -0.01811,0.19926 -0.05434,0.38041c-0.03623,0.18115 -0.08152,0.37135 -0.13586,0.57062c-0.05434,0.19926 -0.09963,0.38947 -0.13586,0.57062c-0.03623,0.18115 -0.05434,0.28984 -0.05434,0.32607c0,0.18115 -0.00906,0.63402 -0.02717,1.35861c-0.01811,0.72459 -0.04529,1.49447 -0.08152,2.30963c-0.03623,0.81516 -0.08152,1.57599 -0.13586,2.28246c-0.05434,0.70648 -0.09963,1.15029 -0.13586,1.33144c0,0.03623 -0.04529,0.25361 -0.13586,0.65213c-0.09057,0.39852 -0.13586,0.67025 -0.13586,0.81516v7.17345c0,0.07246 -0.01811,0.25361 -0.05434,0.54344c-0.03623,0.28984 -0.08152,0.59779 -0.13586,0.92385c-0.05434,0.32607 -0.09963,0.63402 -0.13586,0.92385c-0.03623,0.28984 -0.05434,0.45287 -0.05434,0.4891c0,0.10869 -0.01811,0.27172 -0.05434,0.4891c-0.03623,0.21738 -0.05434,0.38041 -0.05434,0.4891c0,1.30426 0.08152,2.59947 0.24455,3.88562c0.16303,1.28615 0.24455,2.58135 0.24455,3.88562v1.52164c0,0.07246 -0.03623,0.19926 -0.10869,0.38041c-0.07246,0.18115 -0.16303,0.38041 -0.27172,0.59779c-0.10869,0.21738 -0.20832,0.41664 -0.29889,0.59779c-0.09057,0.18115 -0.15398,0.28984 -0.19021,0.32607c0,0.14492 -0.01811,0.4891 -0.05434,1.03254c-0.03623,0.54344 -0.07246,1.13217 -0.10869,1.76619c-0.03623,0.63402 -0.07246,1.22275 -0.10869,1.76619c-0.03623,0.54344 -0.07246,0.88762 -0.10869,1.03254c0,0.07246 -0.01811,0.20832 -0.05434,0.40758c-0.03623,0.19926 -0.08152,0.39852 -0.13586,0.59779c-0.05434,0.19926 -0.09963,0.38947 -0.13586,0.57062c-0.03623,0.18115 -0.05434,0.28984 -0.05434,0.32607v0.54344c0,0.90574 0.09057,1.77525 0.27172,2.60853c0.18115,0.83328 0.34418,1.66656 0.4891,2.49984c0.03623,0.07246 0.07246,0.24455 0.10869,0.51627c0.03623,0.27172 0.08152,0.5525 0.13586,0.84234c0.05434,0.28984 0.09963,0.57062 0.13586,0.84234c0.03623,0.27172 0.07246,0.44381 0.10869,0.51627c0.07246,0.18115 0.24455,0.44381 0.51627,0.78799c0.27172,0.34418 0.44381,0.51627 0.51627,0.51627h6.84738c0.07246,0 0.34418,0.10869 0.81516,0.32607c0.47098,0.21738 0.83328,0.41664 1.08689,0.59779c0.07246,0 0.13586,0.03623 0.19021,0.10869c0.05434,0.07246 0.08152,0.14492 0.08152,0.21738c0.07246,0.10869 0.17209,0.26266 0.29889,0.46193c0.1268,0.19926 0.25361,0.41664 0.38041,0.65213c0.1268,0.23549 0.24455,0.45287 0.35324,0.65213c0.10869,0.19926 0.18115,0.35324 0.21738,0.46193v0.27172c0,0.18115 -0.00906,0.4257 -0.02717,0.73365c-0.01811,0.30795 -0.0634,0.6159 -0.13586,0.92385c-0.07246,0.30795 -0.19021,0.59779 -0.35324,0.86951c-0.16303,0.27172 -0.40758,0.46193 -0.73365,0.57062c-1.41295,0.18115 -2.87119,0.37135 -4.37472,0.57062c-1.50353,0.19926 -3.01611,0.29889 -4.53775,0.29889c-0.3623,0 -0.6793,-0.04529 -0.95103,-0.13586c-0.27172,-0.09057 -0.52533,-0.19021 -0.76082,-0.29889c-0.23549,-0.10869 -0.48004,-0.20832 -0.73365,-0.29889c-0.25361,-0.09057 -0.54344,-0.13586 -0.86951,-0.13586c-0.28984,0 -0.54344,0.08152 -0.76082,0.24455c-0.21738,0.16303 -0.43475,0.35324 -0.65213,0.57062c-0.21738,0.21738 -0.44381,0.40758 -0.6793,0.57062c-0.23549,0.16303 -0.49816,0.24455 -0.78799,0.24455c-0.28984,0 -0.56156,-0.0634 -0.81516,-0.19021c-0.25361,-0.1268 -0.51627,-0.27172 -0.78799,-0.43475c-0.27172,-0.16303 -0.54344,-0.30795 -0.81516,-0.43475c-0.27172,-0.1268 -0.57062,-0.19021 -0.89668,-0.19021z" data-paper-data="{&quot;elementType&quot;:&quot;letter&quot;,&quot;baseline&quot;:75.5859375,&quot;baselineProportion&quot;:0.9910371318822023,&quot;fontSize&quot;:100}"></path><path d="M322.63116,441.0875v-1.30426c0,-0.07246 0.10869,-0.30795 0.32607,-0.70648c0.21738,-0.39852 0.32607,-0.63402 0.32607,-0.70648c0.18115,-0.43475 0.34418,-0.9148 0.4891,-1.44012c0.14492,-0.52533 0.31701,-1.02348 0.51627,-1.49447c0.19926,-0.47098 0.46193,-0.86951 0.78799,-1.19557c0.32607,-0.32607 0.79705,-0.4891 1.41295,-0.4891h0.54344c0.10869,0 0.25361,0.16303 0.43475,0.4891c0.18115,0.32607 0.32607,0.57967 0.43475,0.76082c0.47098,0.86951 0.98726,1.85676 1.54881,2.96177c0.56156,1.105 1.20463,2.12849 1.92922,3.07045c0.72459,0.94197 1.57599,1.73902 2.55418,2.39115c0.9782,0.65213 2.10131,0.9782 3.36935,0.9782c0.47098,0 1.06877,-0.17209 1.79336,-0.51627c0.72459,-0.34418 1.44012,-0.75176 2.1466,-1.22275c0.70648,-0.47098 1.34049,-0.96914 1.90205,-1.49447c0.56156,-0.52533 0.89668,-0.98726 1.00537,-1.38578c0.14492,-0.47098 0.27172,-0.90574 0.38041,-1.30426c0.10869,-0.39852 0.16303,-0.81516 0.16303,-1.24992c0,-0.72459 -0.18115,-1.4673 -0.54344,-2.22812c0,-0.43475 -0.37135,-1.03254 -1.11406,-1.79336c-0.74271,-0.76082 -1.60316,-1.51258 -2.58135,-2.25529c-0.9782,-0.74271 -1.92017,-1.42201 -2.8259,-2.03791c-0.90574,-0.6159 -1.52164,-1.01443 -1.84771,-1.19557c-0.39852,-0.14492 -0.80611,-0.22643 -1.22275,-0.24455c-0.41664,-0.01811 -0.76988,-0.15398 -1.05971,-0.40758c0,-0.07246 -0.08152,-0.18115 -0.24455,-0.32607c-0.16303,-0.14492 -0.32607,-0.29889 -0.4891,-0.46193c-0.16303,-0.16303 -0.32607,-0.31701 -0.4891,-0.46193c-0.16303,-0.14492 -0.24455,-0.21738 -0.24455,-0.21738c-0.07246,-0.14492 -0.30795,-0.35324 -0.70648,-0.62496c-0.39852,-0.27172 -0.67025,-0.48004 -0.81516,-0.62496l-0.76082,-0.38041l-2.98894,-2.98894c-0.25361,-0.6159 -0.46193,-1.2318 -0.62496,-1.84771c-0.16303,-0.6159 -0.33512,-1.24992 -0.51627,-1.90205c-0.03623,-0.18115 -0.09963,-0.43475 -0.19021,-0.76082c-0.09057,-0.32607 -0.17209,-0.64307 -0.24455,-0.95103c-0.07246,-0.30795 -0.14492,-0.57967 -0.21738,-0.81516c-0.07246,-0.23549 -0.10869,-0.37135 -0.10869,-0.40758c-0.07246,-0.9782 0,-2.00168 0.21738,-3.07045c0.21738,-1.06877 0.5525,-2.09226 1.00537,-3.07045c0.45287,-0.9782 0.98726,-1.89299 1.60316,-2.74439c0.6159,-0.85139 1.30426,-1.54881 2.06508,-2.09226c0.07246,-0.07246 0.27172,-0.15398 0.59779,-0.24455c0.32607,-0.09057 0.54344,-0.17209 0.65213,-0.24455c0.54344,-0.21738 1.13217,-0.5525 1.76619,-1.00537c0.63402,-0.45287 1.29521,-0.90574 1.98357,-1.35861c0.68836,-0.45287 1.37672,-0.84234 2.06508,-1.1684c0.68836,-0.32607 1.34049,-0.4891 1.9564,-0.4891c0.6159,0 1.32238,0.13586 2.11943,0.40758c0.79705,0.27172 1.4673,0.49816 2.01074,0.6793c0.9782,0.32607 1.92017,0.63402 2.8259,0.92385c0.90574,0.28984 1.71185,0.67025 2.41832,1.14123c0.70648,0.47098 1.26803,1.06877 1.68467,1.79336c0.41664,0.72459 0.62496,1.66656 0.62496,2.8259c0,0.39852 -0.04529,0.96914 -0.13586,1.71185c-0.09057,0.74271 -0.24455,1.4673 -0.46193,2.17377c-0.21738,0.70648 -0.52533,1.32238 -0.92385,1.84771c-0.39852,0.52533 -0.90574,0.78799 -1.52164,0.78799h-0.32607c-0.07246,-0.07246 -0.19926,-0.32607 -0.38041,-0.76082c-0.18115,-0.43475 -0.30795,-0.68836 -0.38041,-0.76082c-0.50721,-0.90574 -1.05971,-1.77525 -1.6575,-2.60853c-0.59779,-0.83328 -1.26803,-1.56693 -2.01074,-2.20094c-0.74271,-0.63402 -1.54881,-1.13217 -2.41832,-1.49447c-0.86951,-0.3623 -1.84771,-0.54344 -2.93459,-0.54344c-0.32607,0 -0.70648,0.01811 -1.14123,0.05434c-0.43475,0.03623 -0.81516,0.16303 -1.14123,0.38041c-1.2318,0.94197 -2.16472,1.93828 -2.79873,2.98894c-0.63402,1.05066 -0.95103,2.37304 -0.95103,3.96713c0,0.86951 0.19926,1.6575 0.59779,2.36398c0.39852,0.70648 0.90574,1.33144 1.52164,1.87488c0.6159,0.54344 1.30426,1.01443 2.06508,1.41295c0.76082,0.39852 1.50353,0.70648 2.22812,0.92385c0.03623,0.03623 0.16303,0.07246 0.38041,0.10869c0.21738,0.03623 0.46193,0.07246 0.73365,0.10869c0.27172,0.03623 0.51627,0.07246 0.73365,0.10869c0.21738,0.03623 0.34418,0.05434 0.38041,0.05434c0.07246,0 0.19926,0.0634 0.38041,0.19021c0.18115,0.1268 0.30795,0.19021 0.38041,0.19021c0.79705,0.57967 1.62127,1.15029 2.47267,1.71185c0.85139,0.56156 1.68467,1.14123 2.49984,1.73902c0.81516,0.59779 1.60316,1.24086 2.36398,1.92922c0.76082,0.68836 1.44918,1.43107 2.06508,2.22812c0.03623,0.03623 0.10869,0.16303 0.21738,0.38041c0.10869,0.21738 0.22643,0.46193 0.35324,0.73365c0.1268,0.27172 0.24455,0.54344 0.35324,0.81516c0.10869,0.27172 0.19926,0.48004 0.27172,0.62496c0,0.07246 0.00906,0.21738 0.02717,0.43475c0.01811,0.21738 0.04529,0.45287 0.08152,0.70648c0.03623,0.25361 0.08152,0.49816 0.13586,0.73365c0.05434,0.23549 0.09963,0.37135 0.13586,0.40758c0.14492,0.43475 0.32607,0.82422 0.54344,1.1684c0.21738,0.34418 0.4257,0.6793 0.62496,1.00537c0.19926,0.32607 0.37135,0.65213 0.51627,0.9782c0.14492,0.32607 0.21738,0.70648 0.21738,1.14123c0,1.15935 -0.25361,2.22812 -0.76082,3.20631c-0.50721,0.9782 -1.01443,2.01074 -1.52164,3.09763c-0.47098,0.76082 -1.08689,1.50353 -1.84771,2.22812c-0.76082,0.72459 -1.39484,1.32238 -1.90205,1.79336c-1.44918,1.26803 -3.11574,2.16472 -4.99968,2.69004c-1.88394,0.52533 -3.69541,0.78799 -5.43443,0.78799c-1.30426,0 -2.62664,-0.07246 -3.96713,-0.21738c-1.34049,-0.14492 -2.59041,-0.47098 -3.74976,-0.9782c-0.03623,-0.03623 -0.16303,-0.11775 -0.38041,-0.24455c-0.21738,-0.1268 -0.46193,-0.27172 -0.73365,-0.43475c-0.27172,-0.16303 -0.52533,-0.31701 -0.76082,-0.46193c-0.23549,-0.14492 -0.38947,-0.23549 -0.46193,-0.27172c-0.72459,-0.43475 -1.36767,-0.82422 -1.92922,-1.1684c-0.56156,-0.34418 -1.02348,-0.73365 -1.38578,-1.1684c-0.3623,-0.43475 -0.63402,-0.96008 -0.81516,-1.57599c-0.18115,-0.6159 -0.27172,-1.41295 -0.27172,-2.39115z" data-paper-data="{&quot;elementType&quot;:&quot;letter&quot;,&quot;baseline&quot;:44.921875,&quot;baselineProportion&quot;:0.9766454352441614,&quot;fontSize&quot;:100}"></path></g></g></g></g><g clip-path="url(#clip-1)" data-paper-data="{&quot;elementType&quot;:&quot;emblem&quot;}" fill="#ffffff" stroke-width="1"><g><path d="M285.90525,111.83383c0.6178,0.10375 1.22852,0.15563 1.83688,0.15563c5.35502,0 9.88945,-3.83647 10.78313,-9.12546c1.00687,-5.95395 -3.01824,-11.61551 -8.97455,-12.62237c-6.06949,-1.02573 -11.62494,3.08662 -12.62001,8.97219c-0.48811,2.88383 0.17449,5.78417 1.86989,8.16811c1.69776,2.3863 4.22082,3.96616 7.10465,4.4519zM281.58303,100.00138c0.50697,-3.01117 3.08662,-5.19939 6.13552,-5.19939c0.34427,0 0.69561,0.03065 1.04931,0.0896c3.38845,0.57299 5.67806,3.79638 5.10743,7.18718c-0.56592,3.35072 -3.70206,5.704 -7.18954,5.10507c-1.63881,-0.27589 -3.07719,-1.17664 -4.03925,-2.53249c-0.96206,-1.35585 -1.34406,-3.00881 -1.06346,-4.64998z"></path><path d="M306.40806,136.30986l-0.92434,-3.82703l-1.38415,-5.72051l-1.39358,-5.76531l-0.28768,-1.19079c-0.31833,-1.31341 -0.16978,-1.99487 -1.75907,-3.93079c-1.58929,-1.93592 -3.54172,-2.20945 -5.85727,-2.20945h-14.148c-1.03045,0 -1.99958,0.23816 -2.87912,0.63902c-0.40793,0.12733 -0.80172,0.29947 -1.18136,0.49754l-12.44552,-10.1842v-9.81635c0,-3.90013 -3.17387,-7.074 -7.074,-7.074h-56.592c-3.90013,0 -7.074,3.17387 -7.074,7.074v37.728c0,3.90013 3.17387,7.074 7.074,7.074h25.938v9.432h-14.148c-1.30397,0 -2.358,1.05403 -2.358,2.358c0,1.30397 1.05403,2.358 2.358,2.358h33.012c1.30397,0 2.358,-1.05403 2.358,-2.358c0,-1.30397 -1.05403,-2.358 -2.358,-2.358h-14.148v-9.432h25.938c3.65018,0 6.62834,-2.78716 7.0009,-6.34066l0.87482,0.57299c0.30418,0.19807 0.6178,0.36785 0.93848,0.51169c2.0774,0.91019 4.51321,0.65788 6.35953,-0.65317l1.32991,-0.9432v4.49435v4.716v2.358c0,3.07012 1.97836,5.66156 4.716,6.63777v23.42673c0,3.57709 2.90741,6.4845 6.4845,6.4845c1.57514,0 3.00173,-0.58714 4.1265,-1.52327c1.12477,0.93613 2.55136,1.52327 4.1265,1.52327c3.57709,0 6.4845,-2.90741 6.4845,-6.4845v-23.42437c2.73764,-0.97857 4.716,-3.57237 4.716,-6.64013v-1.49733c1.89583,-1.56335 2.76829,-4.07462 2.17643,-6.5128zM264.14798,110.70906l8.3992,6.87357l-4.1996,2.98051l-4.1996,-2.74471zM259.43198,132.52999c0,1.29926 -1.05638,2.358 -2.358,2.358h-56.592c-1.30162,0 -2.358,-1.05874 -2.358,-2.358v-37.728c0,-1.29926 1.05638,-2.358 2.358,-2.358h56.592c1.30162,0 2.358,1.05874 2.358,2.358v5.95631l-0.86539,-0.7074c-1.00922,-0.82294 -2.49476,-0.67675 -3.31771,0.33248c-0.8253,1.00922 -0.67439,2.49476 0.33484,3.31771l3.84826,3.15029v7.95825c-0.1179,-0.05895 -0.22637,-0.13205 -0.34427,-0.18628c-2.91213,-1.28039 -6.29114,-0.26881 -8.02663,2.39573c-0.28296,0.43151 -0.49046,0.89132 -0.6626,1.36528h-47.5585c-1.30397,0 -2.358,1.05638 -2.358,2.358c0,1.30162 1.05403,2.358 2.358,2.358h47.67876c0.38671,0.9149 0.99743,1.70719 1.75435,2.358h-49.43311c-1.30397,0 -2.358,1.05638 -2.358,2.358c0,1.30162 1.05403,2.358 2.358,2.358h49.518c1.30397,0 2.358,-1.05638 2.358,-2.358c0,-0.27117 -0.06838,-0.52112 -0.15327,-0.76399l4.86927,3.17858zM286.54898,174.38449c0,0.97621 -0.79229,1.7685 -1.7685,1.7685c-0.97621,0 -1.7685,-0.79229 -1.7685,-1.7685v-22.9905h3.537zM294.80198,174.38449c0,0.97621 -0.79229,1.7685 -1.7685,1.7685c-0.97621,0 -1.7685,-0.79229 -1.7685,-1.7685v-22.9905h3.537zM299.51798,144.31999c0,1.29926 -1.05638,2.358 -2.358,2.358h-4.1265h-8.253h-4.1265c-1.30162,0 -2.358,-1.05874 -2.358,-2.358v-2.358v-4.716v-9.432h-0.07546c-0.18392,-1.11769 -1.11062,-1.98544 -2.28254,-1.98544c-0.50697,0 -0.94792,0.19336 -1.32991,0.46453l-0.03301,-0.02594l-5.05791,3.58416c-0.51169,0.36077 -1.16957,0.42444 -1.73077,0.17685c-0.09196,-0.03773 -0.17685,-0.08489 -0.25702,-0.14148l-3.38137,-2.20945l-4.716,-3.07955l-3.91428,-2.55607c-0.81587,-0.53055 -1.04459,-1.62702 -0.51169,-2.4476c0.47867,-0.73098 1.41244,-0.99272 2.18822,-0.65317c0.08725,0.04009 0.17449,0.08725 0.25938,0.14384l1.97836,1.28983l4.716,3.08191l4.30571,2.81309l7.88044,-5.58846l3.6549,2.98994c-0.24995,0.62251 -0.43859,1.2686 -0.48103,1.94535c-0.02358,0.33719 -0.03773,0.67439 -0.00707,1.0163c0.15799,1.72606 0.97857,3.28705 2.30848,4.39531l13.70469,11.42451l0.44095,0.36549c1.01158,0.84181 2.25896,1.32991 3.56294,1.45017zM301.04125,139.33754c-0.24523,0.15327 -0.52348,0.22873 -0.80408,0.24759c-0.04244,0.00472 -0.08725,0.01886 -0.12969,0.01886c-0.40558,0 -0.80644,-0.13912 -1.13184,-0.41029l-2.67397,-2.22831l-11.47403,-9.56169c-0.67675,-0.56356 -0.79465,-1.51619 -0.35606,-2.24953c0.04952,-0.08017 0.06838,-0.16742 0.13205,-0.24052c0.34898,-0.41972 0.85124,-0.63666 1.35821,-0.63666c0.40086,0 0.80172,0.13441 1.12948,0.40793l3.9355,3.27998l1.88168,1.56807l0.00472,0.00472c0.24523,0.18157 0.53291,0.31597 0.84888,0.39143c0.93141,0.21929 1.85575,-0.15091 2.40516,-0.86539c0.19807,-0.25702 0.3537,-0.55177 0.43387,-0.88661c0.26174,-1.11769 -0.34191,-2.20001 -1.35113,-2.65275l-1.46668,-1.2238l-4.70657,-3.92135c-0.94792,-0.52348 -2.01609,-0.81587 -3.11256,-0.81587c-0.31361,0 -0.6178,0.05659 -0.92669,0.10139c-0.63666,0.09196 -1.24031,0.29475 -1.81802,0.55649l-2.24717,-1.83924h2.03967h2.81309h8.97691h1.67654c0.43859,0.20043 0.797,0.56592 0.95735,1.05167c0.01415,0.0448 0.04244,0.08017 0.05423,0.12733l0.53527,2.13871l1.8581,7.68708l1.94063,8.03371c0.18157,0.74041 -0.13676,1.51384 -0.78286,1.91705z"></path><path d="M202.83999,101.87599h18.864c1.30397,0 2.358,-1.05638 2.358,-2.358c0,-1.30162 -1.05403,-2.358 -2.358,-2.358h-18.864c-1.30397,0 -2.358,1.05638 -2.358,2.358c0,1.30162 1.05403,2.358 2.358,2.358z"></path><path d="M202.83999,108.94999h18.864c1.30397,0 2.358,-1.05638 2.358,-2.358c0,-1.30162 -1.05403,-2.358 -2.358,-2.358h-18.864c-1.30397,0 -2.358,1.05638 -2.358,2.358c0,1.30162 1.05403,2.358 2.358,2.358z"></path><path d="M202.83999,116.02399h18.864c1.30397,0 2.358,-1.05638 2.358,-2.358c0,-1.30162 -1.05403,-2.358 -2.358,-2.358h-18.864c-1.30397,0 -2.358,1.05638 -2.358,2.358c0,1.30162 1.05403,2.358 2.358,2.358z"></path><path d="M233.49399,116.02399h14.148c3.90013,0 7.074,-3.17387 7.074,-7.074v-4.716c0,-3.90013 -3.17387,-7.074 -7.074,-7.074h-14.148c-3.90013,0 -7.074,3.17387 -7.074,7.074v4.716c0,3.90013 3.17387,7.074 7.074,7.074zM231.13599,104.23399c0,-1.29926 1.05638,-2.358 2.358,-2.358h14.148c1.30162,0 2.358,1.05874 2.358,2.358v4.716c0,1.29926 -1.05638,2.358 -2.358,2.358h-14.148c-1.30162,0 -2.358,-1.05874 -2.358,-2.358z"></path><path d="M211.81218,179.68763c5.84784,-0.03301 10.57799,-4.81739 10.55205,-10.66995c-0.03773,-5.84784 -4.82211,-10.5827 -10.66995,-10.54969c-5.85256,0.03301 -10.58742,4.81975 -10.55205,10.66759c0.02594,5.85256 4.81504,10.58742 10.66995,10.55205zM211.7155,163.18399c3.25168,-0.01886 5.90915,2.61031 5.92801,5.85963c0.01886,3.25404 -2.60559,5.90915 -5.85727,5.92801c-3.2564,0.01886 -5.91386,-2.60795 -5.92801,-5.86199c-0.02358,-3.24932 2.60559,-5.90915 5.85727,-5.92565z"></path><path d="M248.22205,179.68763c5.84784,-0.03301 10.5827,-4.81739 10.55205,-10.66995c-0.03773,-5.84784 -4.82211,-10.5827 -10.66995,-10.54969c-5.84784,0.03301 -10.58742,4.81975 -10.55205,10.66759c0.03065,5.85256 4.81739,10.58742 10.66995,10.55205zM248.13009,163.18399c3.25168,-0.01886 5.90915,2.61031 5.92801,5.85963c0.01886,3.25404 -2.61031,5.90915 -5.85727,5.92801c-3.2564,0.01886 -5.91386,-2.60795 -5.93273,-5.86199c-0.01886,-3.24932 2.61031,-5.90915 5.86199,-5.92565z"></path><path d="M257.59982,182.04799h-18.864c-3.83411,0 -6.96553,3.06776 -7.07164,6.87593l-1.70719,11.10146l-1.69776,-11.10146c-0.10611,-3.80817 -3.23753,-6.87593 -7.07164,-6.87593h-18.864c-3.83411,0 -6.96553,3.06776 -7.07164,6.87593l-1.84396,11.98807h4.77023l1.75907,-11.43158l0.0283,-0.35842c0,-1.29926 1.05638,-2.358 2.358,-2.358h18.864c1.30162,0 2.358,1.05874 2.358,2.358l1.80387,11.79h4.47077h0.27117h4.49671l1.75907,-11.43158l0.03065,-0.35842c0,-1.29926 1.05638,-2.358 2.358,-2.358h18.864c1.30162,0 2.358,1.05874 2.358,2.358l1.80387,11.79h4.7443l-1.83452,-11.98807c-0.10611,-3.80817 -3.23753,-6.87593 -7.07164,-6.87593z"></path></g></g></g></svg>